<?xml version="1.0" encoding="UTF-8"?>
<svg width="440px" height="440px" viewBox="0 0 440 440" version="1.1" xmlns="http://www.w3.org/2000/svg" xmlns:xlink="http://www.w3.org/1999/xlink">
    <!-- Generator: Sketch 51.3 (57544) - http://www.bohemiancoding.com/sketch -->
    <title>Pattern 1_Wider</title>
    <desc>Created with Sketch.</desc>
    <defs>
        <circle id="path-1" cx="220" cy="220" r="220"></circle>
    </defs>
    <g id="Pattern-1_Wider" stroke="none" stroke-width="1" fill="none" fill-rule="evenodd">
        <g id="Big-Square">
            <mask id="mask-2" fill="white">
                <use xlink:href="#path-1"></use>
            </mask>
            <g id="Oval"></g>
            <g id="Chunk" mask="url(#mask-2)" stroke-linecap="round" stroke-linejoin="round">
                <g transform="translate(-221.000000, -258.000000)" id="Line-Group-2">
                    <g transform="translate(202.000000, 0.000000)">
                        <polyline id="Line" stroke="#000000" stroke-width="4" points="27 0 20 48 27 96 20 154 27 216 20 296 27 382"></polyline>
                        <polyline id="Line" stroke="#000000" stroke-width="4" points="37 0 30 48 37 96 30 154 37 216 30 296 37 382"></polyline>
                    </g>
                    <g transform="translate(242.000000, 0.000000)">
                        <polyline id="Line" stroke="#000000" stroke-width="4" points="7 0 0 48 7 96 0 154 7 216 0 296 7 382"></polyline>
                        <polyline id="Line" stroke="#000000" stroke-width="4" points="17 0 10 48 17 96 10 154 17 216 10 296 17 382"></polyline>
                        <polyline id="Line" stroke="#000000" stroke-width="4" points="29 0 22 48 29 96 22 154 29 216 22 296 29 382"></polyline>
                        <polyline id="Line" stroke="#000000" stroke-width="4" points="39 0 32 48 39 96 32 154 39 216 32 296 39 382"></polyline>
                    </g>
                    <g transform="translate(284.000000, 0.000000)">
                        <polyline id="Line" stroke="#000000" stroke-width="4" points="7 0 0 48 7 96 0 154 7 216 0 296 7 382"></polyline>
                        <polyline id="Line" stroke="#000000" stroke-width="4" points="17 0 10 48 17 96 10 154 17 216 10 296 17 382"></polyline>
                        <polyline id="Line" stroke="#000000" stroke-width="4" points="27 0 20 48 27 96 20 154 27 216 20 296 27 382"></polyline>
                        <polyline id="Line" stroke="#000000" stroke-width="4" points="37 0 30 48 37 96 30 154 37 216 30 296 37 382"></polyline>
                    </g>
                </g>
            </g>
            <g id="Chunk" mask="url(#mask-2)" stroke-linecap="round" stroke-linejoin="round">
                <g transform="translate(104.000000, -258.000000)" id="Line-Group-2">
                    <g>
                        <polyline id="Line" stroke="#000000" stroke-width="4" points="7 0 0 48 7 96 0 154 7 216 0 296 7 382"></polyline>
                        <polyline id="Line" stroke="#000000" stroke-width="4" points="17 0 10 48 17 96 10 154 17 216 10 296 17 382"></polyline>
                        <polyline id="Line" stroke="#000000" stroke-width="4" points="27 0 20 48 27 96 20 154 27 216 20 296 27 382"></polyline>
                        <polyline id="Line" stroke="#000000" stroke-width="4" points="37 0 30 48 37 96 30 154 37 216 30 296 37 382"></polyline>
                    </g>
                    <g transform="translate(40.000000, 0.000000)">
                        <polyline id="Line" stroke="#000000" stroke-width="4" points="7 0 0 48 7 96 0 154 7 216 0 296 7 382"></polyline>
                        <polyline id="Line" stroke="#000000" stroke-width="4" points="17 0 10 48 17 96 10 154 17 216 10 296 17 382"></polyline>
                        <polyline id="Line" stroke="#000000" stroke-width="4" points="27 0 20 48 27 96 20 154 27 216 20 296 27 382"></polyline>
                        <polyline id="Line" stroke="#000000" stroke-width="4" points="37 0 30 48 37 96 30 154 37 216 30 296 37 382"></polyline>
                    </g>
                    <g transform="translate(80.000000, 0.000000)">
                        <polyline id="Line" stroke="#000000" stroke-width="4" points="7 0 0 48 7 96 0 154 7 216 0 296 7 382"></polyline>
                        <polyline id="Line" stroke="#000000" stroke-width="4" points="17 0 10 48 17 96 10 154 17 216 10 296 17 382"></polyline>
                        <polyline id="Line" stroke="#000000" stroke-width="4" points="27 0 20 48 27 96 20 154 27 216 20 296 27 382"></polyline>
                        <polyline id="Line" stroke="#000000" stroke-width="4" points="37 0 30 48 37 96 30 154 37 216 30 296 37 382"></polyline>
                    </g>
                    <g transform="translate(120.000000, 0.000000)">
                        <polyline id="Line" stroke="#000000" stroke-width="4" points="7 0 0 48 7 96 0 154 7 216 0 296 7 382"></polyline>
                        <polyline id="Line" stroke="#000000" stroke-width="4" points="17 0 10 48 17 96 10 154 17 216 10 296 17 382"></polyline>
                        <polyline id="Line" stroke="#000000" stroke-width="4" points="27 0 20 48 27 96 20 154 27 216 20 296 27 382"></polyline>
                        <polyline id="Line" stroke="#000000" stroke-width="4" points="37 0 30 48 37 96 30 154 37 216 30 296 37 382"></polyline>
                    </g>
                    <g transform="translate(160.000000, 0.000000)">
                        <polyline id="Line" stroke="#000000" stroke-width="4" points="7 0 0 48 7 96 0 154 7 216 0 296 7 382"></polyline>
                        <polyline id="Line" stroke="#000000" stroke-width="4" points="17 0 10 48 17 96 10 154 17 216 10 296 17 382"></polyline>
                        <polyline id="Line" stroke="#000000" stroke-width="4" points="27 0 20 48 27 96 20 154 27 216 20 296 27 382"></polyline>
                        <polyline id="Line" stroke="#000000" stroke-width="4" points="37 0 30 48 37 96 30 154 37 216 30 296 37 382"></polyline>
                    </g>
                    <g transform="translate(200.000000, 0.000000)">
                        <polyline id="Line" stroke="#000000" stroke-width="4" points="7 0 0 48 7 96 0 154 7 216 0 296 7 382"></polyline>
                        <polyline id="Line" stroke="#000000" stroke-width="4" points="17 0 10 48 17 96 10 154 17 216 10 296 17 382"></polyline>
                        <polyline id="Line" stroke="#000000" stroke-width="4" points="27 0 20 48 27 96 20 154 27 216 20 296 27 382"></polyline>
                        <polyline id="Line" stroke="#000000" stroke-width="4" points="37 0 30 48 37 96 30 154 37 216 30 296 37 382"></polyline>
                    </g>
                    <g transform="translate(242.000000, 0.000000)">
                        <polyline id="Line" stroke="#000000" stroke-width="4" points="7 0 0 48 7 96 0 154 7 216 0 296 7 382"></polyline>
                        <polyline id="Line" stroke="#000000" stroke-width="4" points="17 0 10 48 17 96 10 154 17 216 10 296 17 382"></polyline>
                        <polyline id="Line" stroke="#000000" stroke-width="4" points="29 0 22 48 29 96 22 154 29 216 22 296 29 382"></polyline>
                        <polyline id="Line" stroke="#000000" stroke-width="4" points="39 0 32 48 39 96 32 154 39 216 32 296 39 382"></polyline>
                    </g>
                    <g transform="translate(284.000000, 0.000000)">
                        <polyline id="Line" stroke="#000000" stroke-width="4" points="7 0 0 48 7 96 0 154 7 216 0 296 7 382"></polyline>
                        <polyline id="Line" stroke="#000000" stroke-width="4" points="17 0 10 48 17 96 10 154 17 216 10 296 17 382"></polyline>
                        <polyline id="Line" stroke="#000000" stroke-width="4" points="27 0 20 48 27 96 20 154 27 216 20 296 27 382"></polyline>
                        <polyline id="Line" stroke="#000000" stroke-width="4" points="37 0 30 48 37 96 30 154 37 216 30 296 37 382"></polyline>
                    </g>
                </g>
            </g>
            <g id="Chunk" mask="url(#mask-2)" stroke-linecap="round" stroke-linejoin="round">
                <g transform="translate(-221.000000, 124.000000)" id="Line-Group-2">
                    <g transform="translate(202.000000, 0.000000)">
                        <polyline id="Line" stroke="#000000" stroke-width="4" points="27 0 20 48 27 96 20 154 27 216 20 296 27 382"></polyline>
                        <polyline id="Line" stroke="#000000" stroke-width="4" points="37 0 30 48 37 96 30 154 37 216 30 296 37 382"></polyline>
                    </g>
                    <g transform="translate(242.000000, 0.000000)">
                        <polyline id="Line" stroke="#000000" stroke-width="4" points="7 0 0 48 7 96 0 154 7 216 0 296 7 382"></polyline>
                        <polyline id="Line" stroke="#000000" stroke-width="4" points="17 0 10 48 17 96 10 154 17 216 10 296 17 382"></polyline>
                        <polyline id="Line" stroke="#000000" stroke-width="4" points="29 0 22 48 29 96 22 154 29 216 22 296 29 382"></polyline>
                        <polyline id="Line" stroke="#000000" stroke-width="4" points="39 0 32 48 39 96 32 154 39 216 32 296 39 382"></polyline>
                    </g>
                    <g transform="translate(284.000000, 0.000000)">
                        <polyline id="Line" stroke="#000000" stroke-width="4" points="7 0 0 48 7 96 0 154 7 216 0 296 7 382"></polyline>
                        <polyline id="Line" stroke="#000000" stroke-width="4" points="17 0 10 48 17 96 10 154 17 216 10 296 17 382"></polyline>
                        <polyline id="Line" stroke="#000000" stroke-width="4" points="27 0 20 48 27 96 20 154 27 216 20 296 27 382"></polyline>
                        <polyline id="Line" stroke="#000000" stroke-width="4" points="37 0 30 48 37 96 30 154 37 216 30 296 37 382"></polyline>
                    </g>
                </g>
            </g>
            <g id="Chunk" mask="url(#mask-2)" stroke-linecap="round" stroke-linejoin="round">
                <g transform="translate(104.000000, 124.000000)" id="Line-Group-2">
                    <g>
                        <polyline id="Line" stroke="#000000" stroke-width="4" points="7 0 0 48 7 96 0 154 7 216 0 296 7 382"></polyline>
                        <polyline id="Line" stroke="#000000" stroke-width="4" points="17 0 10 48 17 96 10 154 17 216 10 296 17 382"></polyline>
                        <polyline id="Line" stroke="#000000" stroke-width="4" points="27 0 20 48 27 96 20 154 27 216 20 296 27 382"></polyline>
                        <polyline id="Line" stroke="#000000" stroke-width="4" points="37 0 30 48 37 96 30 154 37 216 30 296 37 382"></polyline>
                    </g>
                    <g transform="translate(40.000000, 0.000000)">
                        <polyline id="Line" stroke="#000000" stroke-width="4" points="7 0 0 48 7 96 0 154 7 216 0 296 7 382"></polyline>
                        <polyline id="Line" stroke="#000000" stroke-width="4" points="17 0 10 48 17 96 10 154 17 216 10 296 17 382"></polyline>
                        <polyline id="Line" stroke="#000000" stroke-width="4" points="27 0 20 48 27 96 20 154 27 216 20 296 27 382"></polyline>
                        <polyline id="Line" stroke="#000000" stroke-width="4" points="37 0 30 48 37 96 30 154 37 216 30 296 37 382"></polyline>
                    </g>
                    <g transform="translate(80.000000, 0.000000)">
                        <polyline id="Line" stroke="#000000" stroke-width="4" points="7 0 0 48 7 96 0 154 7 216 0 296 7 382"></polyline>
                        <polyline id="Line" stroke="#000000" stroke-width="4" points="17 0 10 48 17 96 10 154 17 216 10 296 17 382"></polyline>
                        <polyline id="Line" stroke="#000000" stroke-width="4" points="27 0 20 48 27 96 20 154 27 216 20 296 27 382"></polyline>
                        <polyline id="Line" stroke="#000000" stroke-width="4" points="37 0 30 48 37 96 30 154 37 216 30 296 37 382"></polyline>
                    </g>
                    <g transform="translate(120.000000, 0.000000)">
                        <polyline id="Line" stroke="#000000" stroke-width="4" points="7 0 0 48 7 96 0 154 7 216 0 296 7 382"></polyline>
                        <polyline id="Line" stroke="#000000" stroke-width="4" points="17 0 10 48 17 96 10 154 17 216 10 296 17 382"></polyline>
                        <polyline id="Line" stroke="#000000" stroke-width="4" points="27 0 20 48 27 96 20 154 27 216 20 296 27 382"></polyline>
                        <polyline id="Line" stroke="#000000" stroke-width="4" points="37 0 30 48 37 96 30 154 37 216 30 296 37 382"></polyline>
                    </g>
                    <g transform="translate(160.000000, 0.000000)">
                        <polyline id="Line" stroke="#000000" stroke-width="4" points="7 0 0 48 7 96 0 154 7 216 0 296 7 382"></polyline>
                        <polyline id="Line" stroke="#000000" stroke-width="4" points="17 0 10 48 17 96 10 154 17 216 10 296 17 382"></polyline>
                        <polyline id="Line" stroke="#000000" stroke-width="4" points="27 0 20 48 27 96 20 154 27 216 20 296 27 382"></polyline>
                        <polyline id="Line" stroke="#000000" stroke-width="4" points="37 0 30 48 37 96 30 154 37 216 30 296 37 382"></polyline>
                    </g>
                    <g transform="translate(200.000000, 0.000000)">
                        <polyline id="Line" stroke="#000000" stroke-width="4" points="7 0 0 48 7 96 0 154 7 216 0 296 7 382"></polyline>
                        <polyline id="Line" stroke="#000000" stroke-width="4" points="17 0 10 48 17 96 10 154 17 216 10 296 17 382"></polyline>
                        <polyline id="Line" stroke="#000000" stroke-width="4" points="27 0 20 48 27 96 20 154 27 216 20 296 27 382"></polyline>
                        <polyline id="Line" stroke="#000000" stroke-width="4" points="37 0 30 48 37 96 30 154 37 216 30 296 37 382"></polyline>
                    </g>
                    <g transform="translate(242.000000, 0.000000)">
                        <polyline id="Line" stroke="#000000" stroke-width="4" points="7 0 0 48 7 96 0 154 7 216 0 296 7 382"></polyline>
                        <polyline id="Line" stroke="#000000" stroke-width="4" points="17 0 10 48 17 96 10 154 17 216 10 296 17 382"></polyline>
                        <polyline id="Line" stroke="#000000" stroke-width="4" points="29 0 22 48 29 96 22 154 29 216 22 296 29 382"></polyline>
                        <polyline id="Line" stroke="#000000" stroke-width="4" points="39 0 32 48 39 96 32 154 39 216 32 296 39 382"></polyline>
                    </g>
                    <g transform="translate(284.000000, 0.000000)">
                        <polyline id="Line" stroke="#000000" stroke-width="4" points="7 0 0 48 7 96 0 154 7 216 0 296 7 382"></polyline>
                        <polyline id="Line" stroke="#000000" stroke-width="4" points="17 0 10 48 17 96 10 154 17 216 10 296 17 382"></polyline>
                        <polyline id="Line" stroke="#000000" stroke-width="4" points="27 0 20 48 27 96 20 154 27 216 20 296 27 382"></polyline>
                        <polyline id="Line" stroke="#000000" stroke-width="4" points="37 0 30 48 37 96 30 154 37 216 30 296 37 382"></polyline>
                        <polyline id="Line" stroke="#000000" stroke-width="4" points="46 0 39 48 46 96 39 154 46 216 39 296 46 382"></polyline>
                    </g>
                </g>
            </g>
        </g>
    </g>
</svg>