<?xml version="1.0" encoding="UTF-8"?>
<svg width="308px" height="308px" viewBox="0 0 308 308" version="1.1" xmlns="http://www.w3.org/2000/svg" xmlns:xlink="http://www.w3.org/1999/xlink">
    <!-- Generator: Sketch 57.1 (83088) - https://sketch.com -->
    <title>Red Moire Full</title>
    <desc>Created with Sketch.</desc>
    <defs>
        <circle id="path-1" cx="154" cy="154" r="154"></circle>
    </defs>
    <g id="Page-1" stroke="none" stroke-width="1" fill="none" fill-rule="evenodd">
        <g id="Artboard" transform="translate(-141.000000, -487.000000)">
            <g id="Red-Moire-Full" transform="translate(295.000000, 641.000000) rotate(16.000000) translate(-295.000000, -641.000000) translate(141.000000, 487.000000)">
                <mask id="mask-2" fill="white">
                    <use xlink:href="#path-1"></use>
                </mask>
                <g id="Oval"></g>
                <polyline id="Line" stroke="#FF0000" stroke-width="2.8" stroke-linecap="round" stroke-linejoin="round" mask="url(#mask-2)" points="-100.8 -180.6 -105.7 -147 -100.8 -113.4 -105.7 -72.8 -100.8 -29.4 -105.7 26.6 -100.8 86.8"></polyline>
                <polyline id="Line" stroke="#FF0000" stroke-width="2.8" stroke-linecap="round" stroke-linejoin="round" mask="url(#mask-2)" points="-93.8 -180.6 -98.7 -147 -93.8 -113.4 -98.7 -72.8 -93.8 -29.4 -98.7 26.6 -93.8 86.8"></polyline>
                <polyline id="Line" stroke="#FF0000" stroke-width="2.8" stroke-linecap="round" stroke-linejoin="round" mask="url(#mask-2)" points="-86.8 -180.6 -91.7 -147 -86.8 -113.4 -91.7 -72.8 -86.8 -29.4 -91.7 26.6 -86.8 86.8"></polyline>
                <polyline id="Line" stroke="#FF0000" stroke-width="2.8" stroke-linecap="round" stroke-linejoin="round" mask="url(#mask-2)" points="-78.4 -180.6 -83.3 -147 -78.4 -113.4 -83.3 -72.8 -78.4 -29.4 -83.3 26.6 -78.4 86.8"></polyline>
                <polyline id="Line" stroke="#FF0000" stroke-width="2.8" stroke-linecap="round" stroke-linejoin="round" mask="url(#mask-2)" points="-71.4 -180.6 -76.3 -147 -71.4 -113.4 -76.3 -72.8 -71.4 -29.4 -76.3 26.6 -71.4 86.8"></polyline>
                <polyline id="Line" stroke="#FF0000" stroke-width="2.8" stroke-linecap="round" stroke-linejoin="round" mask="url(#mask-2)" points="-64.4 -180.6 -69.3 -147 -64.4 -113.4 -69.3 -72.8 -64.4 -29.4 -69.3 26.6 -64.4 86.8"></polyline>
                <polyline id="Line" stroke="#FF0000" stroke-width="2.8" stroke-linecap="round" stroke-linejoin="round" mask="url(#mask-2)" points="-57.4 -180.6 -62.3 -147 -57.4 -113.4 -62.3 -72.8 -57.4 -29.4 -62.3 26.6 -57.4 86.8"></polyline>
                <polyline id="Line" stroke="#FF0000" stroke-width="2.8" stroke-linecap="round" stroke-linejoin="round" mask="url(#mask-2)" points="-50.4 -180.6 -55.3 -147 -50.4 -113.4 -55.3 -72.8 -50.4 -29.4 -55.3 26.6 -50.4 86.8"></polyline>
                <polyline id="Line" stroke="#FF0000" stroke-width="2.8" stroke-linecap="round" stroke-linejoin="round" mask="url(#mask-2)" points="-43.4 -180.6 -48.3 -147 -43.4 -113.4 -48.3 -72.8 -43.4 -29.4 -48.3 26.6 -43.4 86.8"></polyline>
                <polyline id="Line" stroke="#FF0000" stroke-width="2.8" stroke-linecap="round" stroke-linejoin="round" mask="url(#mask-2)" points="-36.4 -180.6 -41.3 -147 -36.4 -113.4 -41.3 -72.8 -36.4 -29.4 -41.3 26.6 -36.4 86.8"></polyline>
                <polyline id="Line" stroke="#FF0000" stroke-width="2.8" stroke-linecap="round" stroke-linejoin="round" mask="url(#mask-2)" points="-29.4 -180.6 -34.3 -147 -29.4 -113.4 -34.3 -72.8 -29.4 -29.4 -34.3 26.6 -29.4 86.8"></polyline>
                <polyline id="Line" stroke="#FF0000" stroke-width="2.8" stroke-linecap="round" stroke-linejoin="round" mask="url(#mask-2)" points="-22.4 -180.6 -27.3 -147 -22.4 -113.4 -27.3 -72.8 -22.4 -29.4 -27.3 26.6 -22.4 86.8"></polyline>
                <polyline id="Line" stroke="#FF0000" stroke-width="2.8" stroke-linecap="round" stroke-linejoin="round" mask="url(#mask-2)" points="-15.4 -180.6 -20.3 -147 -15.4 -113.4 -20.3 -72.8 -15.4 -29.4 -20.3 26.6 -15.4 86.8"></polyline>
                <polyline id="Line" stroke="#FF0000" stroke-width="2.8" stroke-linecap="round" stroke-linejoin="round" mask="url(#mask-2)" points="-8.4 -180.6 -13.3 -147 -8.4 -113.4 -13.3 -72.8 -8.4 -29.4 -13.3 26.6 -8.4 86.8"></polyline>
                <polyline id="Line" stroke="#FF0000" stroke-width="2.8" stroke-linecap="round" stroke-linejoin="round" mask="url(#mask-2)" points="-1.4 -180.6 -6.3 -147 -1.4 -113.4 -6.3 -72.8 -1.4 -29.4 -6.3 26.6 -1.4 86.8"></polyline>
                <polyline id="Line" stroke="#FF0000" stroke-width="2.8" stroke-linecap="round" stroke-linejoin="round" mask="url(#mask-2)" points="5.6 -180.6 0.7 -147 5.6 -113.4 0.7 -72.8 5.6 -29.4 0.7 26.6 5.6 86.8"></polyline>
                <polyline id="Line" stroke="#FF0000" stroke-width="2.8" stroke-linecap="round" stroke-linejoin="round" mask="url(#mask-2)" points="12.6 -180.6 7.7 -147 12.6 -113.4 7.7 -72.8 12.6 -29.4 7.7 26.6 12.6 86.8"></polyline>
                <polyline id="Line" stroke="#FF0000" stroke-width="2.8" stroke-linecap="round" stroke-linejoin="round" mask="url(#mask-2)" points="19.6 -180.6 14.7 -147 19.6 -113.4 14.7 -72.8 19.6 -29.4 14.7 26.6 19.6 86.8"></polyline>
                <polyline id="Line" stroke="#FF0000" stroke-width="2.8" stroke-linecap="round" stroke-linejoin="round" mask="url(#mask-2)" points="26.6 -180.6 21.7 -147 26.6 -113.4 21.7 -72.8 26.6 -29.4 21.7 26.6 26.6 86.8"></polyline>
                <g id="Group" mask="url(#mask-2)" stroke="#FF0000" stroke-linecap="round" stroke-linejoin="round" stroke-width="2.8">
                    <g transform="translate(28.100000, -180.600000)" id="Line">
                        <polyline points="4.9 5.68434189e-14 -1.81188398e-13 33.6 4.9 67.2 -1.81188398e-13 107.8 4.9 151.2 -1.81188398e-13 207.2 4.9 267.4"></polyline>
                        <polyline points="11.9 5.68434189e-14 7 33.6 11.9 67.2 7 107.8 11.9 151.2 7 207.2 11.9 267.4"></polyline>
                        <polyline points="18.9 5.68434189e-14 14 33.6 18.9 67.2 14 107.8 18.9 151.2 14 207.2 18.9 267.4"></polyline>
                        <polyline points="25.9 5.68434189e-14 21 33.6 25.9 67.2 21 107.8 25.9 151.2 21 207.2 25.9 267.4"></polyline>
                        <polyline points="32.9 5.68434189e-14 28 33.6 32.9 67.2 28 107.8 32.9 151.2 28 207.2 32.9 267.4"></polyline>
                        <polyline points="39.9 5.68434189e-14 35 33.6 39.9 67.2 35 107.8 39.9 151.2 35 207.2 39.9 267.4"></polyline>
                        <polyline points="4.9 267.4 -1.81188398e-13 301 4.9 334.6 -1.81188398e-13 375.2 4.9 418.6 -1.81188398e-13 474.6 4.9 534.8"></polyline>
                        <polyline points="11.9 267.4 7 301 11.9 334.6 7 375.2 11.9 418.6 7 474.6 11.9 534.8"></polyline>
                        <polyline points="18.9 267.4 14 301 18.9 334.6 14 375.2 18.9 418.6 14 474.6 18.9 534.8"></polyline>
                        <polyline points="25.9 267.4 21 301 25.9 334.6 21 375.2 25.9 418.6 21 474.6 25.9 534.8"></polyline>
                        <polyline points="32.9 267.4 28 301 32.9 334.6 28 375.2 32.9 418.6 28 474.6 32.9 534.8"></polyline>
                        <polyline points="39.9 267.4 35 301 39.9 334.6 35 375.2 39.9 418.6 35 474.6 39.9 534.8"></polyline>
                    </g>
                </g>
                <g id="Group-2" mask="url(#mask-2)" stroke="#FF0000" stroke-linecap="round" stroke-linejoin="round" stroke-width="2.8">
                    <g transform="translate(69.800000, -180.600000)" id="Line">
                        <polyline points="4.9 5.68434189e-14 -1.81188398e-13 33.6 4.9 67.2 -1.81188398e-13 107.8 4.9 151.2 -1.81188398e-13 207.2 4.9 267.4"></polyline>
                        <polyline points="11.9 5.68434189e-14 7 33.6 11.9 67.2 7 107.8 11.9 151.2 7 207.2 11.9 267.4"></polyline>
                        <polyline points="18.9 5.68434189e-14 14 33.6 18.9 67.2 14 107.8 18.9 151.2 14 207.2 18.9 267.4"></polyline>
                        <polyline points="25.9 5.68434189e-14 21 33.6 25.9 67.2 21 107.8 25.9 151.2 21 207.2 25.9 267.4"></polyline>
                        <polyline points="32.9 5.68434189e-14 28 33.6 32.9 67.2 28 107.8 32.9 151.2 28 207.2 32.9 267.4"></polyline>
                        <polyline points="4.9 267.4 -1.81188398e-13 301 4.9 334.6 -1.81188398e-13 375.2 4.9 418.6 -1.81188398e-13 474.6 4.9 534.8"></polyline>
                        <polyline points="11.9 267.4 7 301 11.9 334.6 7 375.2 11.9 418.6 7 474.6 11.9 534.8"></polyline>
                        <polyline points="18.9 267.4 14 301 18.9 334.6 14 375.2 18.9 418.6 14 474.6 18.9 534.8"></polyline>
                        <polyline points="25.9 267.4 21 301 25.9 334.6 21 375.2 25.9 418.6 21 474.6 25.9 534.8"></polyline>
                        <polyline points="32.9 267.4 28 301 32.9 334.6 28 375.2 32.9 418.6 28 474.6 32.9 534.8"></polyline>
                    </g>
                </g>
                <g id="Group-3" mask="url(#mask-2)" stroke="#FF0000" stroke-linecap="round" stroke-linejoin="round" stroke-width="2.8">
                    <g transform="translate(104.800000, -180.600000)" id="Line">
                        <polyline points="4.9 5.68434189e-14 -1.81188398e-13 33.6 4.9 67.2 -1.81188398e-13 107.8 4.9 151.2 -1.81188398e-13 207.2 4.9 267.4"></polyline>
                        <polyline points="11.9 5.68434189e-14 7 33.6 11.9 67.2 7 107.8 11.9 151.2 7 207.2 11.9 267.4"></polyline>
                        <polyline points="18.9 5.68434189e-14 14 33.6 18.9 67.2 14 107.8 18.9 151.2 14 207.2 18.9 267.4"></polyline>
                        <polyline points="25.9 5.68434189e-14 21 33.6 25.9 67.2 21 107.8 25.9 151.2 21 207.2 25.9 267.4"></polyline>
                        <polyline points="32.9 5.68434189e-14 28 33.6 32.9 67.2 28 107.8 32.9 151.2 28 207.2 32.9 267.4"></polyline>
                        <polyline points="4.9 267.4 -1.81188398e-13 301 4.9 334.6 -1.81188398e-13 375.2 4.9 418.6 -1.81188398e-13 474.6 4.9 534.8"></polyline>
                        <polyline points="11.9 267.4 7 301 11.9 334.6 7 375.2 11.9 418.6 7 474.6 11.9 534.8"></polyline>
                        <polyline points="18.9 267.4 14 301 18.9 334.6 14 375.2 18.9 418.6 14 474.6 18.9 534.8"></polyline>
                        <polyline points="25.9 267.4 21 301 25.9 334.6 21 375.2 25.9 418.6 21 474.6 25.9 534.8"></polyline>
                        <polyline points="32.9 267.4 28 301 32.9 334.6 28 375.2 32.9 418.6 28 474.6 32.9 534.8"></polyline>
                    </g>
                </g>
                <g id="Group-4" mask="url(#mask-2)" stroke="#FF0000" stroke-linecap="round" stroke-linejoin="round" stroke-width="2.8">
                    <g transform="translate(139.800000, -180.600000)" id="Line">
                        <polyline points="4.9 5.68434189e-14 -1.81188398e-13 33.6 4.9 67.2 -1.81188398e-13 107.8 4.9 151.2 -1.81188398e-13 207.2 4.9 267.4"></polyline>
                        <polyline points="11.9 5.68434189e-14 7 33.6 11.9 67.2 7 107.8 11.9 151.2 7 207.2 11.9 267.4"></polyline>
                        <polyline points="18.9 5.68434189e-14 14 33.6 18.9 67.2 14 107.8 18.9 151.2 14 207.2 18.9 267.4"></polyline>
                        <polyline points="25.9 5.68434189e-14 21 33.6 25.9 67.2 21 107.8 25.9 151.2 21 207.2 25.9 267.4"></polyline>
                        <polyline points="32.9 5.68434189e-14 28 33.6 32.9 67.2 28 107.8 32.9 151.2 28 207.2 32.9 267.4"></polyline>
                        <polyline points="4.9 267.4 -1.81188398e-13 301 4.9 334.6 -1.81188398e-13 375.2 4.9 418.6 -1.81188398e-13 474.6 4.9 534.8"></polyline>
                        <polyline points="11.9 267.4 7 301 11.9 334.6 7 375.2 11.9 418.6 7 474.6 11.9 534.8"></polyline>
                        <polyline points="18.9 267.4 14 301 18.9 334.6 14 375.2 18.9 418.6 14 474.6 18.9 534.8"></polyline>
                        <polyline points="25.9 267.4 21 301 25.9 334.6 21 375.2 25.9 418.6 21 474.6 25.9 534.8"></polyline>
                        <polyline points="32.9 267.4 28 301 32.9 334.6 28 375.2 32.9 418.6 28 474.6 32.9 534.8"></polyline>
                    </g>
                </g>
                <g id="Group-5" mask="url(#mask-2)" stroke="#FF0000" stroke-linecap="round" stroke-linejoin="round" stroke-width="2.8">
                    <g transform="translate(174.800000, -180.600000)" id="Line">
                        <polyline points="4.9 5.68434189e-14 -1.81188398e-13 33.6 4.9 67.2 -1.81188398e-13 107.8 4.9 151.2 -1.81188398e-13 207.2 4.9 267.4"></polyline>
                        <polyline points="11.9 5.68434189e-14 7 33.6 11.9 67.2 7 107.8 11.9 151.2 7 207.2 11.9 267.4"></polyline>
                        <polyline points="18.9 5.68434189e-14 14 33.6 18.9 67.2 14 107.8 18.9 151.2 14 207.2 18.9 267.4"></polyline>
                        <polyline points="25.9 5.68434189e-14 21 33.6 25.9 67.2 21 107.8 25.9 151.2 21 207.2 25.9 267.4"></polyline>
                        <polyline points="32.9 5.68434189e-14 28 33.6 32.9 67.2 28 107.8 32.9 151.2 28 207.2 32.9 267.4"></polyline>
                        <polyline points="4.9 267.4 -1.81188398e-13 301 4.9 334.6 -1.81188398e-13 375.2 4.9 418.6 -1.81188398e-13 474.6 4.9 534.8"></polyline>
                        <polyline points="11.9 267.4 7 301 11.9 334.6 7 375.2 11.9 418.6 7 474.6 11.9 534.8"></polyline>
                        <polyline points="18.9 267.4 14 301 18.9 334.6 14 375.2 18.9 418.6 14 474.6 18.9 534.8"></polyline>
                        <polyline points="25.9 267.4 21 301 25.9 334.6 21 375.2 25.9 418.6 21 474.6 25.9 534.8"></polyline>
                        <polyline points="32.9 267.4 28 301 32.9 334.6 28 375.2 32.9 418.6 28 474.6 32.9 534.8"></polyline>
                    </g>
                </g>
                <g id="Group-6" mask="url(#mask-2)" stroke="#FF0000" stroke-linecap="round" stroke-linejoin="round" stroke-width="2.8">
                    <g transform="translate(209.800000, -180.600000)" id="Line">
                        <polyline points="4.9 5.68434189e-14 -1.81188398e-13 33.6 4.9 67.2 -1.81188398e-13 107.8 4.9 151.2 -1.81188398e-13 207.2 4.9 267.4"></polyline>
                        <polyline points="11.9 5.68434189e-14 7 33.6 11.9 67.2 7 107.8 11.9 151.2 7 207.2 11.9 267.4"></polyline>
                        <polyline points="18.9 5.68434189e-14 14 33.6 18.9 67.2 14 107.8 18.9 151.2 14 207.2 18.9 267.4"></polyline>
                        <polyline points="25.9 5.68434189e-14 21 33.6 25.9 67.2 21 107.8 25.9 151.2 21 207.2 25.9 267.4"></polyline>
                        <polyline points="32.3 5.68434189e-14 27.4 33.6 32.3 67.2 27.4 107.8 32.3 151.2 27.4 207.2 32.3 267.4"></polyline>
                        <polyline points="4.9 267.4 -1.81188398e-13 301 4.9 334.6 -1.81188398e-13 375.2 4.9 418.6 -1.81188398e-13 474.6 4.9 534.8"></polyline>
                        <polyline points="11.9 267.4 7 301 11.9 334.6 7 375.2 11.9 418.6 7 474.6 11.9 534.8"></polyline>
                        <polyline points="18.9 267.4 14 301 18.9 334.6 14 375.2 18.9 418.6 14 474.6 18.9 534.8"></polyline>
                        <polyline points="25.9 267.4 21 301 25.9 334.6 21 375.2 25.9 418.6 21 474.6 25.9 534.8"></polyline>
                        <polyline points="32.3 267.4 27.4 301 32.3 334.6 27.4 375.2 32.3 418.6 27.4 474.6 32.3 534.8"></polyline>
                    </g>
                </g>
                <polyline id="Line" stroke="#FF0000" stroke-width="2.8" stroke-linecap="round" stroke-linejoin="round" mask="url(#mask-2)" points="249.1 -180.6 244.2 -147 249.1 -113.4 244.2 -72.8 249.1 -29.4 244.2 26.6 249.1 86.8"></polyline>
                <polyline id="Line" stroke="#FF0000" stroke-width="2.8" stroke-linecap="round" stroke-linejoin="round" mask="url(#mask-2)" points="255.5 -180.6 250.6 -147 255.5 -113.4 250.6 -72.8 255.5 -29.4 250.6 26.6 255.5 86.8"></polyline>
                <polyline id="Line" stroke="#FF0000" stroke-width="2.8" stroke-linecap="round" stroke-linejoin="round" mask="url(#mask-2)" points="262.5 -180.6 257.6 -147 262.5 -113.4 257.6 -72.8 262.5 -29.4 257.6 26.6 262.5 86.8"></polyline>
                <polyline id="Line" stroke="#FF0000" stroke-width="2.8" stroke-linecap="round" stroke-linejoin="round" mask="url(#mask-2)" points="269.5 -180.6 264.6 -147 269.5 -113.4 264.6 -72.8 269.5 -29.4 264.6 26.6 269.5 86.8"></polyline>
                <polyline id="Line" stroke="#FF0000" stroke-width="2.8" stroke-linecap="round" stroke-linejoin="round" mask="url(#mask-2)" points="276.5 -180.6 271.6 -147 276.5 -113.4 271.6 -72.8 276.5 -29.4 271.6 26.6 276.5 86.8"></polyline>
                <g id="Group-7" mask="url(#mask-2)" stroke="#FF0000" stroke-linecap="round" stroke-linejoin="round" stroke-width="2.8">
                    <g transform="translate(278.600000, -180.600000)" id="Line">
                        <polyline points="4.9 0 -1.81188398e-13 33.6 4.9 67.2 -1.81188398e-13 107.8 4.9 151.2 -1.81188398e-13 207.2 4.9 267.4"></polyline>
                        <polyline points="11.9 0 7 33.6 11.9 67.2 7 107.8 11.9 151.2 7 207.2 11.9 267.4"></polyline>
                        <polyline points="4.9 267.4 -1.81188398e-13 301 4.9 334.6 -1.81188398e-13 375.2 4.9 418.6 -1.81188398e-13 474.6 4.9 534.8"></polyline>
                        <polyline points="11.9 267.4 7 301 11.9 334.6 7 375.2 11.9 418.6 7 474.6 11.9 534.8"></polyline>
                        <polyline points="18.2 267.4 13.3 301 18.2 334.6 13.3 375.2 18.2 418.6 13.3 474.6 18.2 534.8"></polyline>
                        <polyline points="25.2 267.4 20.3 301 25.2 334.6 20.3 375.2 25.2 418.6 20.3 474.6 25.2 534.8"></polyline>
                        <polyline points="31.2 267.4 26.3 301 31.2 334.6 26.3 375.2 31.2 418.6 26.3 474.6 31.2 534.8"></polyline>
                    </g>
                </g>
                <polyline id="Line" stroke="#FF0000" stroke-width="2.8" stroke-linecap="round" stroke-linejoin="round" mask="url(#mask-2)" points="297.5 -180.6 292.6 -147 297.5 -113.4 292.6 -72.8 297.5 -29.4 292.6 26.6 297.5 86.8"></polyline>
                <polyline id="Line" stroke="#FF0000" stroke-width="2.8" stroke-linecap="round" stroke-linejoin="round" mask="url(#mask-2)" points="-22.4 86.8 -27.3 120.4 -22.4 154 -27.3 194.6 -22.4 238 -27.3 294 -22.4 354.2"></polyline>
                <polyline id="Line" stroke="#FF0000" stroke-width="2.8" stroke-linecap="round" stroke-linejoin="round" mask="url(#mask-2)" points="-15.4 86.8 -20.3 120.4 -15.4 154 -20.3 194.6 -15.4 238 -20.3 294 -15.4 354.2"></polyline>
                <polyline id="Line" stroke="#FF0000" stroke-width="2.8" stroke-linecap="round" stroke-linejoin="round" mask="url(#mask-2)" points="-8.4 86.8 -13.3 120.4 -8.4 154 -13.3 194.6 -8.4 238 -13.3 294 -8.4 354.2"></polyline>
                <polyline id="Line" stroke="#FF0000" stroke-width="2.8" stroke-linecap="round" stroke-linejoin="round" mask="url(#mask-2)" points="-1.4 86.8 -6.3 120.4 -1.4 154 -6.3 194.6 -1.4 238 -6.3 294 -1.4 354.2"></polyline>
                <polyline id="Line" stroke="#FF0000" stroke-width="2.8" stroke-linecap="round" stroke-linejoin="round" mask="url(#mask-2)" points="5.6 86.8 0.7 120.4 5.6 154 0.7 194.6 5.6 238 0.7 294 5.6 354.2"></polyline>
                <polyline id="Line" stroke="#FF0000" stroke-width="2.8" stroke-linecap="round" stroke-linejoin="round" mask="url(#mask-2)" points="12.6 86.8 7.7 120.4 12.6 154 7.7 194.6 12.6 238 7.7 294 12.6 354.2"></polyline>
                <polyline id="Line" stroke="#FF0000" stroke-width="2.8" stroke-linecap="round" stroke-linejoin="round" mask="url(#mask-2)" points="19.6 86.8 14.7 120.4 19.6 154 14.7 194.6 19.6 238 14.7 294 19.6 354.2"></polyline>
                <polyline id="Line" stroke="#FF0000" stroke-width="2.8" stroke-linecap="round" stroke-linejoin="round" mask="url(#mask-2)" points="26.6 86.8 21.7 120.4 26.6 154 21.7 194.6 26.6 238 21.7 294 26.6 354.2"></polyline>
                <polyline id="Line" stroke="#FF0000" stroke-width="2.8" stroke-linecap="round" stroke-linejoin="round" mask="url(#mask-2)" points="249.1 86.8 244.2 120.4 249.1 154 244.2 194.6 249.1 238 244.2 294 249.1 354.2"></polyline>
                <polyline id="Line" stroke="#FF0000" stroke-width="2.8" stroke-linecap="round" stroke-linejoin="round" mask="url(#mask-2)" points="255.5 86.8 250.6 120.4 255.5 154 250.6 194.6 255.5 238 250.6 294 255.5 354.2"></polyline>
                <polyline id="Line" stroke="#FF0000" stroke-width="2.8" stroke-linecap="round" stroke-linejoin="round" mask="url(#mask-2)" points="262.5 86.8 257.6 120.4 262.5 154 257.6 194.6 262.5 238 257.6 294 262.5 354.2"></polyline>
                <polyline id="Line" stroke="#FF0000" stroke-width="2.8" stroke-linecap="round" stroke-linejoin="round" mask="url(#mask-2)" points="269.5 86.8 264.6 120.4 269.5 154 264.6 194.6 269.5 238 264.6 294 269.5 354.2"></polyline>
                <polyline id="Line" stroke="#FF0000" stroke-width="2.8" stroke-linecap="round" stroke-linejoin="round" mask="url(#mask-2)" points="276.5 86.8 271.6 120.4 276.5 154 271.6 194.6 276.5 238 271.6 294 276.5 354.2"></polyline>
            </g>
        </g>
    </g>
</svg>