<?xml version="1.0" encoding="UTF-8"?>
<svg width="220px" height="220px" viewBox="0 0 220 220" version="1.1" xmlns="http://www.w3.org/2000/svg" xmlns:xlink="http://www.w3.org/1999/xlink">
    <!-- Generator: Sketch 51.3 (57544) - http://www.bohemiancoding.com/sketch -->
    <title>Big Square</title>
    <desc>Created with Sketch.</desc>
    <defs>
        <circle id="path-1" cx="110" cy="110" r="110"></circle>
    </defs>
    <g id="Page-1" stroke="none" stroke-width="1" fill="none" fill-rule="evenodd">
        <g id="Pattern-1_Wide" transform="translate(-67.000000, -109.000000)">
            <g id="Big-Square" transform="translate(67.000000, 109.000000)">
                <mask id="mask-2" fill="white">
                    <use xlink:href="#path-1"></use>
                </mask>
                <g id="Oval"></g>
                <g id="Chunk" mask="url(#mask-2)" stroke-linecap="round" stroke-linejoin="round">
                    <g transform="translate(-59.000000, -67.000000)" id="Line-Group-2">
                        <g transform="translate(40.000000, 0.000000)">
                            <polyline id="Line" stroke="#000000" stroke-width="2" points="19.5 0 16 24 19.5 48 16 77 19.5 108 16 148 19.5 191"></polyline>
                        </g>
                        <g transform="translate(61.000000, 0.000000)">
                            <polyline id="Line" stroke="#000000" stroke-width="2" points="3.5 0 0 24 3.5 48 0 77 3.5 108 0 148 3.5 191"></polyline>
                            <polyline id="Line" stroke="#000000" stroke-width="2" points="8.5 0 5 24 8.5 48 5 77 8.5 108 5 148 8.5 191"></polyline>
                            <polyline id="Line" stroke="#000000" stroke-width="2" points="13.5 0 10 24 13.5 48 10 77 13.5 108 10 148 13.5 191"></polyline>
                            <polyline id="Line" stroke="#000000" stroke-width="2" points="18.5 0 15 24 18.5 48 15 77 18.5 108 15 148 18.5 191"></polyline>
                        </g>
                        <g transform="translate(81.000000, 0.000000)">
                            <polyline id="Line" stroke="#000000" stroke-width="2" points="3.5 0 0 24 3.5 48 0 77 3.5 108 0 148 3.5 191"></polyline>
                            <polyline id="Line" stroke="#000000" stroke-width="2" points="8.5 0 5 24 8.5 48 5 77 8.5 108 5 148 8.5 191"></polyline>
                            <polyline id="Line" stroke="#000000" stroke-width="2" points="13.5 0 10 24 13.5 48 10 77 13.5 108 10 148 13.5 191"></polyline>
                            <polyline id="Line" stroke="#000000" stroke-width="2" points="18.5 0 15 24 18.5 48 15 77 18.5 108 15 148 18.5 191"></polyline>
                        </g>
                        <g transform="translate(101.000000, 0.000000)">
                            <polyline id="Line" stroke="#000000" stroke-width="2" points="3.5 0 0 24 3.5 48 0 77 3.5 108 0 148 3.5 191"></polyline>
                            <polyline id="Line" stroke="#000000" stroke-width="2" points="8.5 0 5 24 8.5 48 5 77 8.5 108 5 148 8.5 191"></polyline>
                            <polyline id="Line" stroke="#000000" stroke-width="2" points="13.5 0 10 24 13.5 48 10 77 13.5 108 10 148 13.5 191"></polyline>
                            <polyline id="Line" stroke="#000000" stroke-width="2" points="18.5 0 15 24 18.5 48 15 77 18.5 108 15 148 18.5 191"></polyline>
                        </g>
                        <g transform="translate(121.000000, 0.000000)">
                            <polyline id="Line" stroke="#000000" stroke-width="2" points="3.5 0 0 24 3.5 48 0 77 3.5 108 0 148 3.5 191"></polyline>
                            <polyline id="Line" stroke="#000000" stroke-width="2" points="8.5 0 5 24 8.5 48 5 77 8.5 108 5 148 8.5 191"></polyline>
                            <polyline id="Line" stroke="#000000" stroke-width="2" points="14.5 0 11 24 14.5 48 11 77 14.5 108 11 148 14.5 191"></polyline>
                            <polyline id="Line" stroke="#000000" stroke-width="2" points="19.5 0 16 24 19.5 48 16 77 19.5 108 16 148 19.5 191"></polyline>
                        </g>
                        <g transform="translate(142.000000, 0.000000)">
                            <polyline id="Line" stroke="#000000" stroke-width="2" points="3.5 0 0 24 3.5 48 0 77 3.5 108 0 148 3.5 191"></polyline>
                            <polyline id="Line" stroke="#000000" stroke-width="2" points="8.5 0 5 24 8.5 48 5 77 8.5 108 5 148 8.5 191"></polyline>
                            <polyline id="Line" stroke="#000000" stroke-width="2" points="13.5 0 10 24 13.5 48 10 77 13.5 108 10 148 13.5 191"></polyline>
                            <polyline id="Line" stroke="#000000" stroke-width="2" points="18.5 0 15 24 18.5 48 15 77 18.5 108 15 148 18.5 191"></polyline>
                        </g>
                    </g>
                </g>
                <g id="Chunk" mask="url(#mask-2)" stroke-linecap="round" stroke-linejoin="round">
                    <g transform="translate(103.000000, -67.000000)" id="Line-Group-2">
                        <g>
                            <polyline id="Line" stroke="#000000" stroke-width="2" points="3.5 0 0 24 3.5 48 0 77 3.5 108 0 148 3.5 191"></polyline>
                            <polyline id="Line" stroke="#000000" stroke-width="2" points="8.5 0 5 24 8.5 48 5 77 8.5 108 5 148 8.5 191"></polyline>
                            <polyline id="Line" stroke="#000000" stroke-width="2" points="13.5 0 10 24 13.5 48 10 77 13.5 108 10 148 13.5 191"></polyline>
                            <polyline id="Line" stroke="#000000" stroke-width="2" points="18.5 0 15 24 18.5 48 15 77 18.5 108 15 148 18.5 191"></polyline>
                        </g>
                        <g transform="translate(20.000000, 0.000000)">
                            <polyline id="Line" stroke="#000000" stroke-width="2" points="3.5 0 0 24 3.5 48 0 77 3.5 108 0 148 3.5 191"></polyline>
                            <polyline id="Line" stroke="#000000" stroke-width="2" points="8.5 0 5 24 8.5 48 5 77 8.5 108 5 148 8.5 191"></polyline>
                            <polyline id="Line" stroke="#000000" stroke-width="2" points="13.5 0 10 24 13.5 48 10 77 13.5 108 10 148 13.5 191"></polyline>
                            <polyline id="Line" stroke="#000000" stroke-width="2" points="18.5 0 15 24 18.5 48 15 77 18.5 108 15 148 18.5 191"></polyline>
                        </g>
                        <g transform="translate(40.000000, 0.000000)">
                            <polyline id="Line" stroke="#000000" stroke-width="2" points="3.5 0 0 24 3.5 48 0 77 3.5 108 0 148 3.5 191"></polyline>
                            <polyline id="Line" stroke="#000000" stroke-width="2" points="8.5 0 5 24 8.5 48 5 77 8.5 108 5 148 8.5 191"></polyline>
                            <polyline id="Line" stroke="#000000" stroke-width="2" points="13.5 0 10 24 13.5 48 10 77 13.5 108 10 148 13.5 191"></polyline>
                            <polyline id="Line" stroke="#000000" stroke-width="2" points="18.5 0 15 24 18.5 48 15 77 18.5 108 15 148 18.5 191"></polyline>
                        </g>
                        <g transform="translate(60.000000, 0.000000)">
                            <polyline id="Line" stroke="#000000" stroke-width="2" points="3.5 0 0 24 3.5 48 0 77 3.5 108 0 148 3.5 191"></polyline>
                            <polyline id="Line" stroke="#000000" stroke-width="2" points="8.5 0 5 24 8.5 48 5 77 8.5 108 5 148 8.5 191"></polyline>
                            <polyline id="Line" stroke="#000000" stroke-width="2" points="13.5 0 10 24 13.5 48 10 77 13.5 108 10 148 13.5 191"></polyline>
                            <polyline id="Line" stroke="#000000" stroke-width="2" points="18.5 0 15 24 18.5 48 15 77 18.5 108 15 148 18.5 191"></polyline>
                        </g>
                        <g transform="translate(80.000000, 0.000000)">
                            <polyline id="Line" stroke="#000000" stroke-width="2" points="3.5 0 0 24 3.5 48 0 77 3.5 108 0 148 3.5 191"></polyline>
                            <polyline id="Line" stroke="#000000" stroke-width="2" points="8.5 0 5 24 8.5 48 5 77 8.5 108 5 148 8.5 191"></polyline>
                            <polyline id="Line" stroke="#000000" stroke-width="2" points="13.5 0 10 24 13.5 48 10 77 13.5 108 10 148 13.5 191"></polyline>
                            <polyline id="Line" stroke="#000000" stroke-width="2" points="18.5 0 15 24 18.5 48 15 77 18.5 108 15 148 18.5 191"></polyline>
                        </g>
                        <g transform="translate(100.000000, 0.000000)">
                            <polyline id="Line" stroke="#000000" stroke-width="2" points="3.5 0 0 24 3.5 48 0 77 3.5 108 0 148 3.5 191"></polyline>
                            <polyline id="Line" stroke="#000000" stroke-width="2" points="8.5 0 5 24 8.5 48 5 77 8.5 108 5 148 8.5 191"></polyline>
                            <polyline id="Line" stroke="#000000" stroke-width="2" points="13.5 0 10 24 13.5 48 10 77 13.5 108 10 148 13.5 191"></polyline>
                            <polyline id="Line" stroke="#000000" stroke-width="2" points="18.5 0 15 24 18.5 48 15 77 18.5 108 15 148 18.5 191"></polyline>
                        </g>
                    </g>
                </g>
                <g id="Chunk" mask="url(#mask-2)" stroke-linecap="round" stroke-linejoin="round">
                    <g transform="translate(-59.000000, 124.000000)" id="Line-Group-2">
                        <g transform="translate(40.000000, 0.000000)">
                            <polyline id="Line" stroke="#000000" stroke-width="2" points="19.5 0 16 24 19.5 48 16 77 19.5 108 16 148 19.5 191"></polyline>
                        </g>
                        <g transform="translate(61.000000, 0.000000)">
                            <polyline id="Line" stroke="#000000" stroke-width="2" points="3.5 0 0 24 3.5 48 0 77 3.5 108 0 148 3.5 191"></polyline>
                            <polyline id="Line" stroke="#000000" stroke-width="2" points="8.5 0 5 24 8.5 48 5 77 8.5 108 5 148 8.5 191"></polyline>
                            <polyline id="Line" stroke="#000000" stroke-width="2" points="13.5 0 10 24 13.5 48 10 77 13.5 108 10 148 13.5 191"></polyline>
                            <polyline id="Line" stroke="#000000" stroke-width="2" points="18.5 0 15 24 18.5 48 15 77 18.5 108 15 148 18.5 191"></polyline>
                        </g>
                        <g transform="translate(81.000000, 0.000000)">
                            <polyline id="Line" stroke="#000000" stroke-width="2" points="3.5 0 0 24 3.5 48 0 77 3.5 108 0 148 3.5 191"></polyline>
                            <polyline id="Line" stroke="#000000" stroke-width="2" points="8.5 0 5 24 8.5 48 5 77 8.5 108 5 148 8.5 191"></polyline>
                            <polyline id="Line" stroke="#000000" stroke-width="2" points="13.5 0 10 24 13.5 48 10 77 13.5 108 10 148 13.5 191"></polyline>
                            <polyline id="Line" stroke="#000000" stroke-width="2" points="18.5 0 15 24 18.5 48 15 77 18.5 108 15 148 18.5 191"></polyline>
                        </g>
                        <g transform="translate(101.000000, 0.000000)">
                            <polyline id="Line" stroke="#000000" stroke-width="2" points="3.5 0 0 24 3.5 48 0 77 3.5 108 0 148 3.5 191"></polyline>
                            <polyline id="Line" stroke="#000000" stroke-width="2" points="8.5 0 5 24 8.5 48 5 77 8.5 108 5 148 8.5 191"></polyline>
                            <polyline id="Line" stroke="#000000" stroke-width="2" points="13.5 0 10 24 13.5 48 10 77 13.5 108 10 148 13.5 191"></polyline>
                            <polyline id="Line" stroke="#000000" stroke-width="2" points="18.5 0 15 24 18.5 48 15 77 18.5 108 15 148 18.5 191"></polyline>
                        </g>
                        <g transform="translate(121.000000, 0.000000)">
                            <polyline id="Line" stroke="#000000" stroke-width="2" points="3.5 0 0 24 3.5 48 0 77 3.5 108 0 148 3.5 191"></polyline>
                            <polyline id="Line" stroke="#000000" stroke-width="2" points="8.5 0 5 24 8.5 48 5 77 8.5 108 5 148 8.5 191"></polyline>
                            <polyline id="Line" stroke="#000000" stroke-width="2" points="14.5 0 11 24 14.5 48 11 77 14.5 108 11 148 14.5 191"></polyline>
                            <polyline id="Line" stroke="#000000" stroke-width="2" points="19.5 0 16 24 19.5 48 16 77 19.5 108 16 148 19.5 191"></polyline>
                        </g>
                        <g transform="translate(142.000000, 0.000000)">
                            <polyline id="Line" stroke="#000000" stroke-width="2" points="3.5 0 0 24 3.5 48 0 77 3.5 108 0 148 3.5 191"></polyline>
                            <polyline id="Line" stroke="#000000" stroke-width="2" points="8.5 0 5 24 8.5 48 5 77 8.5 108 5 148 8.5 191"></polyline>
                            <polyline id="Line" stroke="#000000" stroke-width="2" points="13.5 0 10 24 13.5 48 10 77 13.5 108 10 148 13.5 191"></polyline>
                            <polyline id="Line" stroke="#000000" stroke-width="2" points="18.5 0 15 24 18.5 48 15 77 18.5 108 15 148 18.5 191"></polyline>
                        </g>
                    </g>
                </g>
                <g id="Chunk" mask="url(#mask-2)" stroke-linecap="round" stroke-linejoin="round">
                    <g transform="translate(103.000000, 124.000000)" id="Line-Group-2">
                        <g>
                            <polyline id="Line" stroke="#000000" stroke-width="2" points="3.5 0 0 24 3.5 48 0 77 3.5 108 0 148 3.5 191"></polyline>
                            <polyline id="Line" stroke="#000000" stroke-width="2" points="8.5 0 5 24 8.5 48 5 77 8.5 108 5 148 8.5 191"></polyline>
                            <polyline id="Line" stroke="#000000" stroke-width="2" points="13.5 0 10 24 13.5 48 10 77 13.5 108 10 148 13.5 191"></polyline>
                            <polyline id="Line" stroke="#000000" stroke-width="2" points="18.5 0 15 24 18.5 48 15 77 18.5 108 15 148 18.5 191"></polyline>
                        </g>
                        <g transform="translate(20.000000, 0.000000)">
                            <polyline id="Line" stroke="#000000" stroke-width="2" points="3.5 0 0 24 3.5 48 0 77 3.5 108 0 148 3.5 191"></polyline>
                            <polyline id="Line" stroke="#000000" stroke-width="2" points="8.5 0 5 24 8.5 48 5 77 8.5 108 5 148 8.5 191"></polyline>
                            <polyline id="Line" stroke="#000000" stroke-width="2" points="13.5 0 10 24 13.5 48 10 77 13.5 108 10 148 13.5 191"></polyline>
                            <polyline id="Line" stroke="#000000" stroke-width="2" points="18.5 0 15 24 18.5 48 15 77 18.5 108 15 148 18.5 191"></polyline>
                        </g>
                        <g transform="translate(40.000000, 0.000000)">
                            <polyline id="Line" stroke="#000000" stroke-width="2" points="3.5 0 0 24 3.5 48 0 77 3.5 108 0 148 3.5 191"></polyline>
                            <polyline id="Line" stroke="#000000" stroke-width="2" points="8.5 0 5 24 8.5 48 5 77 8.5 108 5 148 8.5 191"></polyline>
                            <polyline id="Line" stroke="#000000" stroke-width="2" points="13.5 0 10 24 13.5 48 10 77 13.5 108 10 148 13.5 191"></polyline>
                            <polyline id="Line" stroke="#000000" stroke-width="2" points="18.5 0 15 24 18.5 48 15 77 18.5 108 15 148 18.5 191"></polyline>
                        </g>
                        <g transform="translate(60.000000, 0.000000)">
                            <polyline id="Line" stroke="#000000" stroke-width="2" points="3.5 0 0 24 3.5 48 0 77 3.5 108 0 148 3.5 191"></polyline>
                            <polyline id="Line" stroke="#000000" stroke-width="2" points="8.5 0 5 24 8.5 48 5 77 8.5 108 5 148 8.5 191"></polyline>
                            <polyline id="Line" stroke="#000000" stroke-width="2" points="13.5 0 10 24 13.5 48 10 77 13.5 108 10 148 13.5 191"></polyline>
                            <polyline id="Line" stroke="#000000" stroke-width="2" points="18.5 0 15 24 18.5 48 15 77 18.5 108 15 148 18.5 191"></polyline>
                        </g>
                        <g transform="translate(80.000000, 0.000000)">
                            <polyline id="Line" stroke="#000000" stroke-width="2" points="3.5 0 0 24 3.5 48 0 77 3.5 108 0 148 3.5 191"></polyline>
                            <polyline id="Line" stroke="#000000" stroke-width="2" points="8.5 0 5 24 8.5 48 5 77 8.5 108 5 148 8.5 191"></polyline>
                            <polyline id="Line" stroke="#000000" stroke-width="2" points="13.5 0 10 24 13.5 48 10 77 13.5 108 10 148 13.5 191"></polyline>
                            <polyline id="Line" stroke="#000000" stroke-width="2" points="18.5 0 15 24 18.5 48 15 77 18.5 108 15 148 18.5 191"></polyline>
                        </g>
                        <g transform="translate(100.000000, 0.000000)">
                            <polyline id="Line" stroke="#000000" stroke-width="2" points="3.5 0 0 24 3.5 48 0 77 3.5 108 0 148 3.5 191"></polyline>
                            <polyline id="Line" stroke="#000000" stroke-width="2" points="8.5 0 5 24 8.5 48 5 77 8.5 108 5 148 8.5 191"></polyline>
                            <polyline id="Line" stroke="#000000" stroke-width="2" points="13.5 0 10 24 13.5 48 10 77 13.5 108 10 148 13.5 191"></polyline>
                            <polyline id="Line" stroke="#000000" stroke-width="2" points="18.5 0 15 24 18.5 48 15 77 18.5 108 15 148 18.5 191"></polyline>
                        </g>
                    </g>
                </g>
            </g>
        </g>
    </g>
</svg>