<?xml version="1.0" encoding="UTF-8"?>
<svg width="993px" height="628px" viewBox="0 0 993 628" version="1.1" xmlns="http://www.w3.org/2000/svg" xmlns:xlink="http://www.w3.org/1999/xlink">
    <title>Rectangle Moire</title>
    <g id="Rectangle-Moire" stroke="none" stroke-width="1" fill="none" fill-rule="evenodd">
        <rect fill="#FFFFFF" x="0" y="0" width="993" height="628"></rect>
        <g id="Group-2" transform="translate(-23.608885, -54.783342)" stroke="#000000" stroke-linecap="round" stroke-linejoin="round" stroke-width="4">
            <g id="Group" transform="translate(0.000000, 382.000000)">
                <g id="Line-Group-2">
                    <polyline id="Line" points="27 0 20 48 27 96 20 154 27 216 20 296 27 382"></polyline>
                    <polyline id="Line" points="37 0 30 48 37 96 30 154 37 216 30 296 37 382"></polyline>
                </g>
                <g id="Line-Group-2" transform="translate(40.000000, 0.000000)">
                    <polyline id="Line" points="7 0 0 48 7 96 0 154 7 216 0 296 7 382"></polyline>
                    <polyline id="Line" points="17 0 10 48 17 96 10 154 17 216 10 296 17 382"></polyline>
                    <polyline id="Line" points="27 0 20 48 27 96 20 154 27 216 20 296 27 382"></polyline>
                    <polyline id="Line" points="37 0 30 48 37 96 30 154 37 216 30 296 37 382"></polyline>
                </g>
                <g id="Line-Group-2" transform="translate(80.000000, 0.000000)">
                    <polyline id="Line" points="7 0 0 48 7 96 0 154 7 216 0 296 7 382"></polyline>
                    <polyline id="Line" points="17 0 10 48 17 96 10 154 17 216 10 296 17 382"></polyline>
                    <polyline id="Line" points="27 0 20 48 27 96 20 154 27 216 20 296 27 382"></polyline>
                    <polyline id="Line" points="37 0 30 48 37 96 30 154 37 216 30 296 37 382"></polyline>
                </g>
                <g id="Line-Group-2" transform="translate(120.000000, 0.000000)">
                    <polyline id="Line" points="7 0 0 48 7 96 0 154 7 216 0 296 7 382"></polyline>
                    <polyline id="Line" points="17 0 10 48 17 96 10 154 17 216 10 296 17 382"></polyline>
                    <polyline id="Line" points="27 0 20 48 27 96 20 154 27 216 20 296 27 382"></polyline>
                    <polyline id="Line" points="37 0 30 48 37 96 30 154 37 216 30 296 37 382"></polyline>
                </g>
                <g id="Line-Group-2" transform="translate(160.000000, 0.000000)">
                    <polyline id="Line" points="7 0 0 48 7 96 0 154 7 216 0 296 7 382"></polyline>
                    <polyline id="Line" points="17 0 10 48 17 96 10 154 17 216 10 296 17 382"></polyline>
                    <polyline id="Line" points="27 0 20 48 27 96 20 154 27 216 20 296 27 382"></polyline>
                    <polyline id="Line" points="37 0 30 48 37 96 30 154 37 216 30 296 37 382"></polyline>
                </g>
                <g id="Line-Group-2" transform="translate(200.000000, 0.000000)">
                    <polyline id="Line" points="7 0 0 48 7 96 0 154 7 216 0 296 7 382"></polyline>
                    <polyline id="Line" points="17 0 10 48 17 96 10 154 17 216 10 296 17 382"></polyline>
                    <polyline id="Line" points="27 0 20 48 27 96 20 154 27 216 20 296 27 382"></polyline>
                    <polyline id="Line" points="37 0 30 48 37 96 30 154 37 216 30 296 37 382"></polyline>
                </g>
                <g id="Line-Group-2" transform="translate(240.000000, 0.000000)">
                    <polyline id="Line" points="7 0 0 48 7 96 0 154 7 216 0 296 7 382"></polyline>
                    <polyline id="Line" points="17 0 10 48 17 96 10 154 17 216 10 296 17 382"></polyline>
                    <polyline id="Line" points="27 0 20 48 27 96 20 154 27 216 20 296 27 382"></polyline>
                    <polyline id="Line" points="37 0 30 48 37 96 30 154 37 216 30 296 37 382"></polyline>
                </g>
                <g id="Line-Group-2" transform="translate(280.000000, 0.000000)">
                    <polyline id="Line" points="7 0 0 48 7 96 0 154 7 216 0 296 7 382"></polyline>
                    <polyline id="Line" points="17 0 10 48 17 96 10 154 17 216 10 296 17 382"></polyline>
                    <polyline id="Line" points="27 0 20 48 27 96 20 154 27 216 20 296 27 382"></polyline>
                    <polyline id="Line" points="37 0 30 48 37 96 30 154 37 216 30 296 37 382"></polyline>
                </g>
                <g id="Line-Group-2" transform="translate(320.000000, 0.000000)">
                    <polyline id="Line" points="7 0 0 48 7 96 0 154 7 216 0 296 7 382"></polyline>
                    <polyline id="Line" points="17 0 10 48 17 96 10 154 17 216 10 296 17 382"></polyline>
                    <polyline id="Line" points="27 0 20 48 27 96 20 154 27 216 20 296 27 382"></polyline>
                    <polyline id="Line" points="37 0 30 48 37 96 30 154 37 216 30 296 37 382"></polyline>
                </g>
                <g id="Line-Group-2" transform="translate(360.000000, 0.000000)">
                    <polyline id="Line" points="7 0 0 48 7 96 0 154 7 216 0 296 7 382"></polyline>
                    <polyline id="Line" points="17 0 10 48 17 96 10 154 17 216 10 296 17 382"></polyline>
                    <polyline id="Line" points="27 0 20 48 27 96 20 154 27 216 20 296 27 382"></polyline>
                    <polyline id="Line" points="37 0 30 48 37 96 30 154 37 216 30 296 37 382"></polyline>
                </g>
                <g id="Line-Group-2" transform="translate(400.000000, 0.000000)">
                    <polyline id="Line" points="7 0 0 48 7 96 0 154 7 216 0 296 7 382"></polyline>
                    <polyline id="Line" points="17 0 10 48 17 96 10 154 17 216 10 296 17 382"></polyline>
                    <polyline id="Line" points="27 0 20 48 27 96 20 154 27 216 20 296 27 382"></polyline>
                    <polyline id="Line" points="37 0 30 48 37 96 30 154 37 216 30 296 37 382"></polyline>
                </g>
                <g id="Line-Group-2" transform="translate(440.000000, 0.000000)">
                    <polyline id="Line" points="7 0 0 48 7 96 0 154 7 216 0 296 7 382"></polyline>
                    <polyline id="Line" points="17 0 10 48 17 96 10 154 17 216 10 296 17 382"></polyline>
                    <polyline id="Line" points="27 0 20 48 27 96 20 154 27 216 20 296 27 382"></polyline>
                    <polyline id="Line" points="37 0 30 48 37 96 30 154 37 216 30 296 37 382"></polyline>
                </g>
                <g id="Line-Group-2" transform="translate(480.000000, 0.000000)">
                    <polyline id="Line" points="7 0 0 48 7 96 0 154 7 216 0 296 7 382"></polyline>
                    <polyline id="Line" points="17 0 10 48 17 96 10 154 17 216 10 296 17 382"></polyline>
                    <polyline id="Line" points="27 0 20 48 27 96 20 154 27 216 20 296 27 382"></polyline>
                    <polyline id="Line" points="37 0 30 48 37 96 30 154 37 216 30 296 37 382"></polyline>
                </g>
                <g id="Line-Group-2" transform="translate(520.000000, 0.000000)">
                    <polyline id="Line" points="7 0 0 48 7 96 0 154 7 216 0 296 7 382"></polyline>
                    <polyline id="Line" points="17 0 10 48 17 96 10 154 17 216 10 296 17 382"></polyline>
                    <polyline id="Line" points="27 0 20 48 27 96 20 154 27 216 20 296 27 382"></polyline>
                    <polyline id="Line" points="37 0 30 48 37 96 30 154 37 216 30 296 37 382"></polyline>
                </g>
                <g id="Line-Group-2" transform="translate(560.000000, 0.000000)">
                    <polyline id="Line" points="7 0 0 48 7 96 0 154 7 216 0 296 7 382"></polyline>
                    <polyline id="Line" points="17 0 10 48 17 96 10 154 17 216 10 296 17 382"></polyline>
                    <polyline id="Line" points="27 0 20 48 27 96 20 154 27 216 20 296 27 382"></polyline>
                    <polyline id="Line" points="37 0 30 48 37 96 30 154 37 216 30 296 37 382"></polyline>
                </g>
                <g id="Line-Group-2" transform="translate(600.000000, 0.000000)">
                    <polyline id="Line" points="7 0 0 48 7 96 0 154 7 216 0 296 7 382"></polyline>
                    <polyline id="Line" points="17 0 10 48 17 96 10 154 17 216 10 296 17 382"></polyline>
                    <polyline id="Line" points="27 0 20 48 27 96 20 154 27 216 20 296 27 382"></polyline>
                    <polyline id="Line" points="37 0 30 48 37 96 30 154 37 216 30 296 37 382"></polyline>
                    <polyline id="Line" points="47 0 40 48 47 96 40 154 47 216 40 296 47 382"></polyline>
                    <polyline id="Line" points="57 0 50 48 57 96 50 154 57 216 50 296 57 382"></polyline>
                    <polyline id="Line" points="67 0 60 48 67 96 60 154 67 216 60 296 67 382"></polyline>
                    <polyline id="Line" points="77 0 70 48 77 96 70 154 77 216 70 296 77 382"></polyline>
                    <polyline id="Line" points="87 0 80 48 87 96 80 154 87 216 80 296 87 382"></polyline>
                    <polyline id="Line" points="97 0 90 48 97 96 90 154 97 216 90 296 97 382"></polyline>
                    <polyline id="Line" points="107 0 100 48 107 96 100 154 107 216 100 296 107 382"></polyline>
                    <polyline id="Line" points="117 0 110 48 117 96 110 154 117 216 110 296 117 382"></polyline>
                    <polyline id="Line" points="127 0 120 48 127 96 120 154 127 216 120 296 127 382"></polyline>
                    <polyline id="Line" points="137 0 130 48 137 96 130 154 137 216 130 296 137 382"></polyline>
                    <polyline id="Line" points="147 0 140 48 147 96 140 154 147 216 140 296 147 382"></polyline>
                    <polyline id="Line" points="157 0 150 48 157 96 150 154 157 216 150 296 157 382"></polyline>
                    <polyline id="Line" points="167 0 160 48 167 96 160 154 167 216 160 296 167 382"></polyline>
                    <polyline id="Line" points="177 0 170 48 177 96 170 154 177 216 170 296 177 382"></polyline>
                    <polyline id="Line" points="187 0 180 48 187 96 180 154 187 216 180 296 187 382"></polyline>
                    <polyline id="Line" points="197 0 190 48 197 96 190 154 197 216 190 296 197 382"></polyline>
                    <polyline id="Line" points="207 0 200 48 207 96 200 154 207 216 200 296 207 382"></polyline>
                    <polyline id="Line" points="217 0 210 48 217 96 210 154 217 216 210 296 217 382"></polyline>
                    <polyline id="Line" points="227 0 220 48 227 96 220 154 227 216 220 296 227 382"></polyline>
                    <polyline id="Line" points="237 0 230 48 237 96 230 154 237 216 230 296 237 382"></polyline>
                    <polyline id="Line" points="247 0 240 48 247 96 240 154 247 216 240 296 247 382"></polyline>
                    <polyline id="Line" points="257 0 250 48 257 96 250 154 257 216 250 296 257 382"></polyline>
                </g>
                <g id="Line-Group-2" transform="translate(860.000000, 0.000000)">
                    <polyline id="Line" points="7 0 0 48 7 96 0 154 7 216 0 296 7 382"></polyline>
                    <polyline id="Line" points="17 0 10 48 17 96 10 154 17 216 10 296 17 382"></polyline>
                    <polyline id="Line" points="27 0 20 48 27 96 20 154 27 216 20 296 27 382"></polyline>
                    <polyline id="Line" points="37 0 30 48 37 96 30 154 37 216 30 296 37 382"></polyline>
                    <polyline id="Line" points="47 0 40 48 47 96 40 154 47 216 40 296 47 382"></polyline>
                    <polyline id="Line" points="57 0 50 48 57 96 50 154 57 216 50 296 57 382"></polyline>
                    <polyline id="Line" points="67 0 60 48 67 96 60 154 67 216 60 296 67 382"></polyline>
                    <polyline id="Line" points="77 0 70 48 77 96 70 154 77 216 70 296 77 382"></polyline>
                    <polyline id="Line" points="87 0 80 48 87 96 80 154 87 216 80 296 87 382"></polyline>
                    <polyline id="Line" points="97 0 90 48 97 96 90 154 97 216 90 296 97 382"></polyline>
                    <polyline id="Line" points="107 0 100 48 107 96 100 154 107 216 100 296 107 382"></polyline>
                    <polyline id="Line" points="117 0 110 48 117 96 110 154 117 216 110 296 117 382"></polyline>
                    <polyline id="Line" points="127 0 120 48 127 96 120 154 127 216 120 296 127 382"></polyline>
                    <polyline id="Line" points="137 0 130 48 137 96 130 154 137 216 130 296 137 382"></polyline>
                    <polyline id="Line" points="147 0 140 48 147 96 140 154 147 216 140 296 147 382"></polyline>
                    <polyline id="Line" points="157 0 150 48 157 96 150 154 157 216 150 296 157 382"></polyline>
                </g>
            </g>
            <g id="Group">
                <g id="Line-Group-2">
                    <polyline id="Line" points="27 0 20 48 27 96 20 154 27 216 20 296 27 382"></polyline>
                    <polyline id="Line" points="37 0 30 48 37 96 30 154 37 216 30 296 37 382"></polyline>
                </g>
                <g id="Line-Group-2" transform="translate(40.000000, 0.000000)">
                    <polyline id="Line" points="7 0 0 48 7 96 0 154 7 216 0 296 7 382"></polyline>
                    <polyline id="Line" points="17 0 10 48 17 96 10 154 17 216 10 296 17 382"></polyline>
                    <polyline id="Line" points="27 0 20 48 27 96 20 154 27 216 20 296 27 382"></polyline>
                    <polyline id="Line" points="37 0 30 48 37 96 30 154 37 216 30 296 37 382"></polyline>
                </g>
                <g id="Line-Group-2" transform="translate(80.000000, 0.000000)">
                    <polyline id="Line" points="7 0 0 48 7 96 0 154 7 216 0 296 7 382"></polyline>
                    <polyline id="Line" points="17 0 10 48 17 96 10 154 17 216 10 296 17 382"></polyline>
                    <polyline id="Line" points="27 0 20 48 27 96 20 154 27 216 20 296 27 382"></polyline>
                    <polyline id="Line" points="37 0 30 48 37 96 30 154 37 216 30 296 37 382"></polyline>
                </g>
                <g id="Line-Group-2" transform="translate(120.000000, 0.000000)">
                    <polyline id="Line" points="7 0 0 48 7 96 0 154 7 216 0 296 7 382"></polyline>
                    <polyline id="Line" points="17 0 10 48 17 96 10 154 17 216 10 296 17 382"></polyline>
                    <polyline id="Line" points="27 0 20 48 27 96 20 154 27 216 20 296 27 382"></polyline>
                    <polyline id="Line" points="37 0 30 48 37 96 30 154 37 216 30 296 37 382"></polyline>
                </g>
                <g id="Line-Group-2" transform="translate(160.000000, 0.000000)">
                    <polyline id="Line" points="7 0 0 48 7 96 0 154 7 216 0 296 7 382"></polyline>
                    <polyline id="Line" points="17 0 10 48 17 96 10 154 17 216 10 296 17 382"></polyline>
                    <polyline id="Line" points="27 0 20 48 27 96 20 154 27 216 20 296 27 382"></polyline>
                    <polyline id="Line" points="37 0 30 48 37 96 30 154 37 216 30 296 37 382"></polyline>
                </g>
                <g id="Line-Group-2" transform="translate(200.000000, 0.000000)">
                    <polyline id="Line" points="7 0 0 48 7 96 0 154 7 216 0 296 7 382"></polyline>
                    <polyline id="Line" points="17 0 10 48 17 96 10 154 17 216 10 296 17 382"></polyline>
                    <polyline id="Line" points="27 0 20 48 27 96 20 154 27 216 20 296 27 382"></polyline>
                    <polyline id="Line" points="37 0 30 48 37 96 30 154 37 216 30 296 37 382"></polyline>
                </g>
                <g id="Line-Group-2" transform="translate(240.000000, 0.000000)">
                    <polyline id="Line" points="7 0 0 48 7 96 0 154 7 216 0 296 7 382"></polyline>
                    <polyline id="Line" points="17 0 10 48 17 96 10 154 17 216 10 296 17 382"></polyline>
                    <polyline id="Line" points="27 0 20 48 27 96 20 154 27 216 20 296 27 382"></polyline>
                    <polyline id="Line" points="37 0 30 48 37 96 30 154 37 216 30 296 37 382"></polyline>
                </g>
                <g id="Line-Group-2" transform="translate(280.000000, 0.000000)">
                    <polyline id="Line" points="7 0 0 48 7 96 0 154 7 216 0 296 7 382"></polyline>
                    <polyline id="Line" points="17 0 10 48 17 96 10 154 17 216 10 296 17 382"></polyline>
                    <polyline id="Line" points="27 0 20 48 27 96 20 154 27 216 20 296 27 382"></polyline>
                    <polyline id="Line" points="37 0 30 48 37 96 30 154 37 216 30 296 37 382"></polyline>
                </g>
                <g id="Line-Group-2" transform="translate(320.000000, 0.000000)">
                    <polyline id="Line" points="7 0 0 48 7 96 0 154 7 216 0 296 7 382"></polyline>
                    <polyline id="Line" points="17 0 10 48 17 96 10 154 17 216 10 296 17 382"></polyline>
                    <polyline id="Line" points="27 0 20 48 27 96 20 154 27 216 20 296 27 382"></polyline>
                    <polyline id="Line" points="37 0 30 48 37 96 30 154 37 216 30 296 37 382"></polyline>
                </g>
                <g id="Line-Group-2" transform="translate(360.000000, 0.000000)">
                    <polyline id="Line" points="7 0 0 48 7 96 0 154 7 216 0 296 7 382"></polyline>
                    <polyline id="Line" points="17 0 10 48 17 96 10 154 17 216 10 296 17 382"></polyline>
                    <polyline id="Line" points="27 0 20 48 27 96 20 154 27 216 20 296 27 382"></polyline>
                    <polyline id="Line" points="37 0 30 48 37 96 30 154 37 216 30 296 37 382"></polyline>
                </g>
                <g id="Line-Group-2" transform="translate(400.000000, 0.000000)">
                    <polyline id="Line" points="7 0 0 48 7 96 0 154 7 216 0 296 7 382"></polyline>
                    <polyline id="Line" points="17 0 10 48 17 96 10 154 17 216 10 296 17 382"></polyline>
                    <polyline id="Line" points="27 0 20 48 27 96 20 154 27 216 20 296 27 382"></polyline>
                    <polyline id="Line" points="37 0 30 48 37 96 30 154 37 216 30 296 37 382"></polyline>
                </g>
                <g id="Line-Group-2" transform="translate(440.000000, 0.000000)">
                    <polyline id="Line" points="7 0 0 48 7 96 0 154 7 216 0 296 7 382"></polyline>
                    <polyline id="Line" points="17 0 10 48 17 96 10 154 17 216 10 296 17 382"></polyline>
                    <polyline id="Line" points="27 0 20 48 27 96 20 154 27 216 20 296 27 382"></polyline>
                    <polyline id="Line" points="37 0 30 48 37 96 30 154 37 216 30 296 37 382"></polyline>
                </g>
                <g id="Line-Group-2" transform="translate(480.000000, 0.000000)">
                    <polyline id="Line" points="7 0 0 48 7 96 0 154 7 216 0 296 7 382"></polyline>
                    <polyline id="Line" points="17 0 10 48 17 96 10 154 17 216 10 296 17 382"></polyline>
                    <polyline id="Line" points="27 0 20 48 27 96 20 154 27 216 20 296 27 382"></polyline>
                    <polyline id="Line" points="37 0 30 48 37 96 30 154 37 216 30 296 37 382"></polyline>
                </g>
                <g id="Line-Group-2" transform="translate(520.000000, 0.000000)">
                    <polyline id="Line" points="7 0 0 48 7 96 0 154 7 216 0 296 7 382"></polyline>
                    <polyline id="Line" points="17 0 10 48 17 96 10 154 17 216 10 296 17 382"></polyline>
                    <polyline id="Line" points="27 0 20 48 27 96 20 154 27 216 20 296 27 382"></polyline>
                    <polyline id="Line" points="37 0 30 48 37 96 30 154 37 216 30 296 37 382"></polyline>
                </g>
                <g id="Line-Group-2" transform="translate(560.000000, 0.000000)">
                    <polyline id="Line" points="7 0 0 48 7 96 0 154 7 216 0 296 7 382"></polyline>
                    <polyline id="Line" points="17 0 10 48 17 96 10 154 17 216 10 296 17 382"></polyline>
                    <polyline id="Line" points="27 0 20 48 27 96 20 154 27 216 20 296 27 382"></polyline>
                    <polyline id="Line" points="37 0 30 48 37 96 30 154 37 216 30 296 37 382"></polyline>
                </g>
                <g id="Line-Group-2" transform="translate(600.000000, 0.000000)">
                    <polyline id="Line" points="7 0 0 48 7 96 0 154 7 216 0 296 7 382"></polyline>
                    <polyline id="Line" points="17 0 10 48 17 96 10 154 17 216 10 296 17 382"></polyline>
                    <polyline id="Line" points="27 0 20 48 27 96 20 154 27 216 20 296 27 382"></polyline>
                    <polyline id="Line" points="37 0 30 48 37 96 30 154 37 216 30 296 37 382"></polyline>
                    <polyline id="Line" points="47 0 40 48 47 96 40 154 47 216 40 296 47 382"></polyline>
                    <polyline id="Line" points="57 0 50 48 57 96 50 154 57 216 50 296 57 382"></polyline>
                    <polyline id="Line" points="67 0 60 48 67 96 60 154 67 216 60 296 67 382"></polyline>
                    <polyline id="Line" points="77 0 70 48 77 96 70 154 77 216 70 296 77 382"></polyline>
                    <polyline id="Line" points="87 0 80 48 87 96 80 154 87 216 80 296 87 382"></polyline>
                    <polyline id="Line" points="97 0 90 48 97 96 90 154 97 216 90 296 97 382"></polyline>
                    <polyline id="Line" points="107 0 100 48 107 96 100 154 107 216 100 296 107 382"></polyline>
                    <polyline id="Line" points="117 0 110 48 117 96 110 154 117 216 110 296 117 382"></polyline>
                    <polyline id="Line" points="127 0 120 48 127 96 120 154 127 216 120 296 127 382"></polyline>
                    <polyline id="Line" points="137 0 130 48 137 96 130 154 137 216 130 296 137 382"></polyline>
                    <polyline id="Line" points="147 0 140 48 147 96 140 154 147 216 140 296 147 382"></polyline>
                    <polyline id="Line" points="157 0 150 48 157 96 150 154 157 216 150 296 157 382"></polyline>
                    <polyline id="Line" points="167 0 160 48 167 96 160 154 167 216 160 296 167 382"></polyline>
                    <polyline id="Line" points="177 0 170 48 177 96 170 154 177 216 170 296 177 382"></polyline>
                    <polyline id="Line" points="187 0 180 48 187 96 180 154 187 216 180 296 187 382"></polyline>
                    <polyline id="Line" points="197 0 190 48 197 96 190 154 197 216 190 296 197 382"></polyline>
                    <polyline id="Line" points="207 0 200 48 207 96 200 154 207 216 200 296 207 382"></polyline>
                    <polyline id="Line" points="217 0 210 48 217 96 210 154 217 216 210 296 217 382"></polyline>
                    <polyline id="Line" points="227 0 220 48 227 96 220 154 227 216 220 296 227 382"></polyline>
                    <polyline id="Line" points="237 0 230 48 237 96 230 154 237 216 230 296 237 382"></polyline>
                    <polyline id="Line" points="247 0 240 48 247 96 240 154 247 216 240 296 247 382"></polyline>
                    <polyline id="Line" points="257 0 250 48 257 96 250 154 257 216 250 296 257 382"></polyline>
                </g>
                <g id="Line-Group-2" transform="translate(860.000000, 0.000000)">
                    <polyline id="Line" points="7 0 0 48 7 96 0 154 7 216 0 296 7 382"></polyline>
                    <polyline id="Line" points="17 0 10 48 17 96 10 154 17 216 10 296 17 382"></polyline>
                    <polyline id="Line" points="27 0 20 48 27 96 20 154 27 216 20 296 27 382"></polyline>
                    <polyline id="Line" points="37 0 30 48 37 96 30 154 37 216 30 296 37 382"></polyline>
                    <polyline id="Line" points="47 0 40 48 47 96 40 154 47 216 40 296 47 382"></polyline>
                    <polyline id="Line" points="57 0 50 48 57 96 50 154 57 216 50 296 57 382"></polyline>
                    <polyline id="Line" points="67 0 60 48 67 96 60 154 67 216 60 296 67 382"></polyline>
                    <polyline id="Line" points="77 0 70 48 77 96 70 154 77 216 70 296 77 382"></polyline>
                    <polyline id="Line" points="87 0 80 48 87 96 80 154 87 216 80 296 87 382"></polyline>
                    <polyline id="Line" points="97 0 90 48 97 96 90 154 97 216 90 296 97 382"></polyline>
                    <polyline id="Line" points="107 0 100 48 107 96 100 154 107 216 100 296 107 382"></polyline>
                    <polyline id="Line" points="117 0 110 48 117 96 110 154 117 216 110 296 117 382"></polyline>
                    <polyline id="Line" points="127 0 120 48 127 96 120 154 127 216 120 296 127 382"></polyline>
                    <polyline id="Line" points="137 0 130 48 137 96 130 154 137 216 130 296 137 382"></polyline>
                    <polyline id="Line" points="147 0 140 48 147 96 140 154 147 216 140 296 147 382"></polyline>
                    <polyline id="Line" points="157 0 150 48 157 96 150 154 157 216 150 296 157 382"></polyline>
                </g>
            </g>
        </g>
        <g id="Top-Group" transform="translate(496.891115, 327.216658) rotate(-7.000000) translate(-496.891115, -327.216658) translate(-61.608885, -54.783342)" stroke="#000000" stroke-linecap="round" stroke-linejoin="round" stroke-width="4">
            <g id="Group" transform="translate(0.000000, 382.000000)">
                <g id="Line-Group-2">
                    <polyline id="Line" points="17 0 10 48 17 96 10 154 17 216 10 296 17 382"></polyline>
                    <polyline id="Line" points="27 0 20 48 27 96 20 154 27 216 20 296 27 382"></polyline>
                    <polyline id="Line" points="37 0 30 48 37 96 30 154 37 216 30 296 37 382"></polyline>
                </g>
                <g id="Line-Group-2" transform="translate(40.000000, 0.000000)">
                    <polyline id="Line" points="7 0 0 48 7 96 0 154 7 216 0 296 7 382"></polyline>
                    <polyline id="Line" points="17 0 10 48 17 96 10 154 17 216 10 296 17 382"></polyline>
                    <polyline id="Line" points="27 0 20 48 27 96 20 154 27 216 20 296 27 382"></polyline>
                    <polyline id="Line" points="37 0 30 48 37 96 30 154 37 216 30 296 37 382"></polyline>
                </g>
                <g id="Line-Group-2" transform="translate(80.000000, 0.000000)">
                    <polyline id="Line" points="7 0 0 48 7 96 0 154 7 216 0 296 7 382"></polyline>
                    <polyline id="Line" points="17 0 10 48 17 96 10 154 17 216 10 296 17 382"></polyline>
                    <polyline id="Line" points="27 0 20 48 27 96 20 154 27 216 20 296 27 382"></polyline>
                    <polyline id="Line" points="37 0 30 48 37 96 30 154 37 216 30 296 37 382"></polyline>
                </g>
                <g id="Line-Group-2" transform="translate(120.000000, 0.000000)">
                    <polyline id="Line" points="7 0 0 48 7 96 0 154 7 216 0 296 7 382"></polyline>
                    <polyline id="Line" points="17 0 10 48 17 96 10 154 17 216 10 296 17 382"></polyline>
                    <polyline id="Line" points="27 0 20 48 27 96 20 154 27 216 20 296 27 382"></polyline>
                    <polyline id="Line" points="37 0 30 48 37 96 30 154 37 216 30 296 37 382"></polyline>
                </g>
                <g id="Line-Group-2" transform="translate(160.000000, 0.000000)">
                    <polyline id="Line" points="7 0 0 48 7 96 0 154 7 216 0 296 7 382"></polyline>
                    <polyline id="Line" points="17 0 10 48 17 96 10 154 17 216 10 296 17 382"></polyline>
                    <polyline id="Line" points="27 0 20 48 27 96 20 154 27 216 20 296 27 382"></polyline>
                    <polyline id="Line" points="37 0 30 48 37 96 30 154 37 216 30 296 37 382"></polyline>
                </g>
                <g id="Line-Group-2" transform="translate(200.000000, 0.000000)">
                    <polyline id="Line" points="7 0 0 48 7 96 0 154 7 216 0 296 7 382"></polyline>
                    <polyline id="Line" points="17 0 10 48 17 96 10 154 17 216 10 296 17 382"></polyline>
                    <polyline id="Line" points="27 0 20 48 27 96 20 154 27 216 20 296 27 382"></polyline>
                    <polyline id="Line" points="37 0 30 48 37 96 30 154 37 216 30 296 37 382"></polyline>
                </g>
                <g id="Line-Group-2" transform="translate(240.000000, 0.000000)">
                    <polyline id="Line" points="7 0 0 48 7 96 0 154 7 216 0 296 7 382"></polyline>
                    <polyline id="Line" points="17 0 10 48 17 96 10 154 17 216 10 296 17 382"></polyline>
                    <polyline id="Line" points="27 0 20 48 27 96 20 154 27 216 20 296 27 382"></polyline>
                    <polyline id="Line" points="37 0 30 48 37 96 30 154 37 216 30 296 37 382"></polyline>
                </g>
                <g id="Line-Group-2" transform="translate(280.000000, 0.000000)">
                    <polyline id="Line" points="7 0 0 48 7 96 0 154 7 216 0 296 7 382"></polyline>
                    <polyline id="Line" points="17 0 10 48 17 96 10 154 17 216 10 296 17 382"></polyline>
                    <polyline id="Line" points="27 0 20 48 27 96 20 154 27 216 20 296 27 382"></polyline>
                    <polyline id="Line" points="37 0 30 48 37 96 30 154 37 216 30 296 37 382"></polyline>
                </g>
                <g id="Line-Group-2" transform="translate(320.000000, 0.000000)">
                    <polyline id="Line" points="7 0 0 48 7 96 0 154 7 216 0 296 7 382"></polyline>
                    <polyline id="Line" points="17 0 10 48 17 96 10 154 17 216 10 296 17 382"></polyline>
                    <polyline id="Line" points="27 0 20 48 27 96 20 154 27 216 20 296 27 382"></polyline>
                    <polyline id="Line" points="37 0 30 48 37 96 30 154 37 216 30 296 37 382"></polyline>
                </g>
                <g id="Line-Group-2" transform="translate(360.000000, 0.000000)">
                    <polyline id="Line" points="7 0 0 48 7 96 0 154 7 216 0 296 7 382"></polyline>
                    <polyline id="Line" points="17 0 10 48 17 96 10 154 17 216 10 296 17 382"></polyline>
                    <polyline id="Line" points="27 0 20 48 27 96 20 154 27 216 20 296 27 382"></polyline>
                    <polyline id="Line" points="37 0 30 48 37 96 30 154 37 216 30 296 37 382"></polyline>
                </g>
                <g id="Line-Group-2" transform="translate(400.000000, 0.000000)">
                    <polyline id="Line" points="7 0 0 48 7 96 0 154 7 216 0 296 7 382"></polyline>
                    <polyline id="Line" points="17 0 10 48 17 96 10 154 17 216 10 296 17 382"></polyline>
                    <polyline id="Line" points="27 0 20 48 27 96 20 154 27 216 20 296 27 382"></polyline>
                    <polyline id="Line" points="37 0 30 48 37 96 30 154 37 216 30 296 37 382"></polyline>
                </g>
                <g id="Line-Group-2" transform="translate(440.000000, 0.000000)">
                    <polyline id="Line" points="7 0 0 48 7 96 0 154 7 216 0 296 7 382"></polyline>
                    <polyline id="Line" points="17 0 10 48 17 96 10 154 17 216 10 296 17 382"></polyline>
                    <polyline id="Line" points="27 0 20 48 27 96 20 154 27 216 20 296 27 382"></polyline>
                    <polyline id="Line" points="37 0 30 48 37 96 30 154 37 216 30 296 37 382"></polyline>
                </g>
                <g id="Line-Group-2" transform="translate(480.000000, 0.000000)">
                    <polyline id="Line" points="7 0 0 48 7 96 0 154 7 216 0 296 7 382"></polyline>
                    <polyline id="Line" points="17 0 10 48 17 96 10 154 17 216 10 296 17 382"></polyline>
                    <polyline id="Line" points="27 0 20 48 27 96 20 154 27 216 20 296 27 382"></polyline>
                    <polyline id="Line" points="37 0 30 48 37 96 30 154 37 216 30 296 37 382"></polyline>
                </g>
                <g id="Line-Group-2" transform="translate(520.000000, 0.000000)">
                    <polyline id="Line" points="7 0 0 48 7 96 0 154 7 216 0 296 7 382"></polyline>
                    <polyline id="Line" points="17 0 10 48 17 96 10 154 17 216 10 296 17 382"></polyline>
                    <polyline id="Line" points="27 0 20 48 27 96 20 154 27 216 20 296 27 382"></polyline>
                    <polyline id="Line" points="37 0 30 48 37 96 30 154 37 216 30 296 37 382"></polyline>
                </g>
                <g id="Line-Group-2" transform="translate(560.000000, 0.000000)">
                    <polyline id="Line" points="7 0 0 48 7 96 0 154 7 216 0 296 7 382"></polyline>
                    <polyline id="Line" points="17 0 10 48 17 96 10 154 17 216 10 296 17 382"></polyline>
                    <polyline id="Line" points="27 0 20 48 27 96 20 154 27 216 20 296 27 382"></polyline>
                    <polyline id="Line" points="37 0 30 48 37 96 30 154 37 216 30 296 37 382"></polyline>
                </g>
                <g id="Line-Group-2" transform="translate(600.000000, 0.000000)">
                    <polyline id="Line" points="7 0 0 48 7 96 0 154 7 216 0 296 7 382"></polyline>
                    <polyline id="Line" points="17 0 10 48 17 96 10 154 17 216 10 296 17 382"></polyline>
                    <polyline id="Line" points="27 0 20 48 27 96 20 154 27 216 20 296 27 382"></polyline>
                    <polyline id="Line" points="37 0 30 48 37 96 30 154 37 216 30 296 37 382"></polyline>
                    <polyline id="Line" points="47 0 40 48 47 96 40 154 47 216 40 296 47 382"></polyline>
                    <polyline id="Line" points="57 0 50 48 57 96 50 154 57 216 50 296 57 382"></polyline>
                    <polyline id="Line" points="67 0 60 48 67 96 60 154 67 216 60 296 67 382"></polyline>
                    <polyline id="Line" points="77 0 70 48 77 96 70 154 77 216 70 296 77 382"></polyline>
                    <polyline id="Line" points="87 0 80 48 87 96 80 154 87 216 80 296 87 382"></polyline>
                    <polyline id="Line" points="97 0 90 48 97 96 90 154 97 216 90 296 97 382"></polyline>
                    <polyline id="Line" points="107 0 100 48 107 96 100 154 107 216 100 296 107 382"></polyline>
                    <polyline id="Line" points="117 0 110 48 117 96 110 154 117 216 110 296 117 382"></polyline>
                    <polyline id="Line" points="127 0 120 48 127 96 120 154 127 216 120 296 127 382"></polyline>
                    <polyline id="Line" points="137 0 130 48 137 96 130 154 137 216 130 296 137 382"></polyline>
                    <polyline id="Line" points="147 0 140 48 147 96 140 154 147 216 140 296 147 382"></polyline>
                    <polyline id="Line" points="157 0 150 48 157 96 150 154 157 216 150 296 157 382"></polyline>
                    <polyline id="Line" points="167 0 160 48 167 96 160 154 167 216 160 296 167 382"></polyline>
                    <polyline id="Line" points="177 0 170 48 177 96 170 154 177 216 170 296 177 382"></polyline>
                    <polyline id="Line" points="187 0 180 48 187 96 180 154 187 216 180 296 187 382"></polyline>
                    <polyline id="Line" points="197 0 190 48 197 96 190 154 197 216 190 296 197 382"></polyline>
                    <polyline id="Line" points="207 0 200 48 207 96 200 154 207 216 200 296 207 382"></polyline>
                    <polyline id="Line" points="217 0 210 48 217 96 210 154 217 216 210 296 217 382"></polyline>
                    <polyline id="Line" points="227 0 220 48 227 96 220 154 227 216 220 296 227 382"></polyline>
                    <polyline id="Line" points="237 0 230 48 237 96 230 154 237 216 230 296 237 382"></polyline>
                    <polyline id="Line" points="247 0 240 48 247 96 240 154 247 216 240 296 247 382"></polyline>
                    <polyline id="Line" points="257 0 250 48 257 96 250 154 257 216 250 296 257 382"></polyline>
                </g>
                <g id="Line-Group-2" transform="translate(860.000000, 0.000000)">
                    <polyline id="Line" points="7 0 0 48 7 96 0 154 7 216 0 296 7 382"></polyline>
                    <polyline id="Line" points="17 0 10 48 17 96 10 154 17 216 10 296 17 382"></polyline>
                    <polyline id="Line" points="27 0 20 48 27 96 20 154 27 216 20 296 27 382"></polyline>
                    <polyline id="Line" points="37 0 30 48 37 96 30 154 37 216 30 296 37 382"></polyline>
                    <polyline id="Line" points="47 0 40 48 47 96 40 154 47 216 40 296 47 382"></polyline>
                    <polyline id="Line" points="57 0 50 48 57 96 50 154 57 216 50 296 57 382"></polyline>
                    <polyline id="Line" points="67 0 60 48 67 96 60 154 67 216 60 296 67 382"></polyline>
                    <polyline id="Line" points="77 0 70 48 77 96 70 154 77 216 70 296 77 382"></polyline>
                    <polyline id="Line" points="87 0 80 48 87 96 80 154 87 216 80 296 87 382"></polyline>
                    <polyline id="Line" points="97 0 90 48 97 96 90 154 97 216 90 296 97 382"></polyline>
                    <polyline id="Line" points="107 0 100 48 107 96 100 154 107 216 100 296 107 382"></polyline>
                    <polyline id="Line" points="117 0 110 48 117 96 110 154 117 216 110 296 117 382"></polyline>
                    <polyline id="Line" points="127 0 120 48 127 96 120 154 127 216 120 296 127 382"></polyline>
                    <polyline id="Line" points="137 0 130 48 137 96 130 154 137 216 130 296 137 382"></polyline>
                    <polyline id="Line" points="147 0 140 48 147 96 140 154 147 216 140 296 147 382"></polyline>
                    <polyline id="Line" points="157 0 150 48 157 96 150 154 157 216 150 296 157 382"></polyline>
                    <polyline id="Line" points="167 0 160 48 167 96 160 154 167 216 160 296 167 382"></polyline>
                    <polyline id="Line" points="177 0 170 48 177 96 170 154 177 216 170 296 177 382"></polyline>
                    <polyline id="Line" points="187 0 180 48 187 96 180 154 187 216 180 296 187 382"></polyline>
                    <polyline id="Line" points="197 0 190 48 197 96 190 154 197 216 190 296 197 382"></polyline>
                </g>
            </g>
            <g id="Group">
                <g id="Line-Group-2" transform="translate(40.000000, 0.000000)">
                    <polyline id="Line" points="27 0 20 48 27 96 20 154 27 216 20 296 27 382"></polyline>
                    <polyline id="Line" points="37 0 30 48 37 96 30 154 37 216 30 296 37 382"></polyline>
                </g>
                <g id="Line-Group-2" transform="translate(80.000000, 0.000000)">
                    <polyline id="Line" points="7 0 0 48 7 96 0 154 7 216 0 296 7 382"></polyline>
                    <polyline id="Line" points="17 0 10 48 17 96 10 154 17 216 10 296 17 382"></polyline>
                    <polyline id="Line" points="27 0 20 48 27 96 20 154 27 216 20 296 27 382"></polyline>
                    <polyline id="Line" points="37 0 30 48 37 96 30 154 37 216 30 296 37 382"></polyline>
                </g>
                <g id="Line-Group-2" transform="translate(120.000000, 0.000000)">
                    <polyline id="Line" points="7 0 0 48 7 96 0 154 7 216 0 296 7 382"></polyline>
                    <polyline id="Line" points="17 0 10 48 17 96 10 154 17 216 10 296 17 382"></polyline>
                    <polyline id="Line" points="27 0 20 48 27 96 20 154 27 216 20 296 27 382"></polyline>
                    <polyline id="Line" points="37 0 30 48 37 96 30 154 37 216 30 296 37 382"></polyline>
                </g>
                <g id="Line-Group-2" transform="translate(160.000000, 0.000000)">
                    <polyline id="Line" points="7 0 0 48 7 96 0 154 7 216 0 296 7 382"></polyline>
                    <polyline id="Line" points="17 0 10 48 17 96 10 154 17 216 10 296 17 382"></polyline>
                    <polyline id="Line" points="27 0 20 48 27 96 20 154 27 216 20 296 27 382"></polyline>
                    <polyline id="Line" points="37 0 30 48 37 96 30 154 37 216 30 296 37 382"></polyline>
                </g>
                <g id="Line-Group-2" transform="translate(200.000000, 0.000000)">
                    <polyline id="Line" points="7 0 0 48 7 96 0 154 7 216 0 296 7 382"></polyline>
                    <polyline id="Line" points="17 0 10 48 17 96 10 154 17 216 10 296 17 382"></polyline>
                    <polyline id="Line" points="27 0 20 48 27 96 20 154 27 216 20 296 27 382"></polyline>
                    <polyline id="Line" points="37 0 30 48 37 96 30 154 37 216 30 296 37 382"></polyline>
                </g>
                <g id="Line-Group-2" transform="translate(240.000000, 0.000000)">
                    <polyline id="Line" points="7 0 0 48 7 96 0 154 7 216 0 296 7 382"></polyline>
                    <polyline id="Line" points="17 0 10 48 17 96 10 154 17 216 10 296 17 382"></polyline>
                    <polyline id="Line" points="27 0 20 48 27 96 20 154 27 216 20 296 27 382"></polyline>
                    <polyline id="Line" points="37 0 30 48 37 96 30 154 37 216 30 296 37 382"></polyline>
                </g>
                <g id="Line-Group-2" transform="translate(280.000000, 0.000000)">
                    <polyline id="Line" points="7 0 0 48 7 96 0 154 7 216 0 296 7 382"></polyline>
                    <polyline id="Line" points="17 0 10 48 17 96 10 154 17 216 10 296 17 382"></polyline>
                    <polyline id="Line" points="27 0 20 48 27 96 20 154 27 216 20 296 27 382"></polyline>
                    <polyline id="Line" points="37 0 30 48 37 96 30 154 37 216 30 296 37 382"></polyline>
                </g>
                <g id="Line-Group-2" transform="translate(320.000000, 0.000000)">
                    <polyline id="Line" points="7 0 0 48 7 96 0 154 7 216 0 296 7 382"></polyline>
                    <polyline id="Line" points="17 0 10 48 17 96 10 154 17 216 10 296 17 382"></polyline>
                    <polyline id="Line" points="27 0 20 48 27 96 20 154 27 216 20 296 27 382"></polyline>
                    <polyline id="Line" points="37 0 30 48 37 96 30 154 37 216 30 296 37 382"></polyline>
                </g>
                <g id="Line-Group-2" transform="translate(360.000000, 0.000000)">
                    <polyline id="Line" points="7 0 0 48 7 96 0 154 7 216 0 296 7 382"></polyline>
                    <polyline id="Line" points="17 0 10 48 17 96 10 154 17 216 10 296 17 382"></polyline>
                    <polyline id="Line" points="27 0 20 48 27 96 20 154 27 216 20 296 27 382"></polyline>
                    <polyline id="Line" points="37 0 30 48 37 96 30 154 37 216 30 296 37 382"></polyline>
                </g>
                <g id="Line-Group-2" transform="translate(400.000000, 0.000000)">
                    <polyline id="Line" points="7 0 0 48 7 96 0 154 7 216 0 296 7 382"></polyline>
                    <polyline id="Line" points="17 0 10 48 17 96 10 154 17 216 10 296 17 382"></polyline>
                    <polyline id="Line" points="27 0 20 48 27 96 20 154 27 216 20 296 27 382"></polyline>
                    <polyline id="Line" points="37 0 30 48 37 96 30 154 37 216 30 296 37 382"></polyline>
                </g>
                <g id="Line-Group-2" transform="translate(440.000000, 0.000000)">
                    <polyline id="Line" points="7 0 0 48 7 96 0 154 7 216 0 296 7 382"></polyline>
                    <polyline id="Line" points="17 0 10 48 17 96 10 154 17 216 10 296 17 382"></polyline>
                    <polyline id="Line" points="27 0 20 48 27 96 20 154 27 216 20 296 27 382"></polyline>
                    <polyline id="Line" points="37 0 30 48 37 96 30 154 37 216 30 296 37 382"></polyline>
                </g>
                <g id="Line-Group-2" transform="translate(480.000000, 0.000000)">
                    <polyline id="Line" points="7 0 0 48 7 96 0 154 7 216 0 296 7 382"></polyline>
                    <polyline id="Line" points="17 0 10 48 17 96 10 154 17 216 10 296 17 382"></polyline>
                    <polyline id="Line" points="27 0 20 48 27 96 20 154 27 216 20 296 27 382"></polyline>
                    <polyline id="Line" points="37 0 30 48 37 96 30 154 37 216 30 296 37 382"></polyline>
                </g>
                <g id="Line-Group-2" transform="translate(520.000000, 0.000000)">
                    <polyline id="Line" points="7 0 0 48 7 96 0 154 7 216 0 296 7 382"></polyline>
                    <polyline id="Line" points="17 0 10 48 17 96 10 154 17 216 10 296 17 382"></polyline>
                    <polyline id="Line" points="27 0 20 48 27 96 20 154 27 216 20 296 27 382"></polyline>
                    <polyline id="Line" points="37 0 30 48 37 96 30 154 37 216 30 296 37 382"></polyline>
                </g>
                <g id="Line-Group-2" transform="translate(560.000000, 0.000000)">
                    <polyline id="Line" points="7 0 0 48 7 96 0 154 7 216 0 296 7 382"></polyline>
                    <polyline id="Line" points="17 0 10 48 17 96 10 154 17 216 10 296 17 382"></polyline>
                    <polyline id="Line" points="27 0 20 48 27 96 20 154 27 216 20 296 27 382"></polyline>
                    <polyline id="Line" points="37 0 30 48 37 96 30 154 37 216 30 296 37 382"></polyline>
                </g>
                <g id="Line-Group-2" transform="translate(600.000000, 0.000000)">
                    <polyline id="Line" points="7 0 0 48 7 96 0 154 7 216 0 296 7 382"></polyline>
                    <polyline id="Line" points="17 0 10 48 17 96 10 154 17 216 10 296 17 382"></polyline>
                    <polyline id="Line" points="27 0 20 48 27 96 20 154 27 216 20 296 27 382"></polyline>
                    <polyline id="Line" points="37 0 30 48 37 96 30 154 37 216 30 296 37 382"></polyline>
                    <polyline id="Line" points="47 0 40 48 47 96 40 154 47 216 40 296 47 382"></polyline>
                    <polyline id="Line" points="57 0 50 48 57 96 50 154 57 216 50 296 57 382"></polyline>
                    <polyline id="Line" points="67 0 60 48 67 96 60 154 67 216 60 296 67 382"></polyline>
                    <polyline id="Line" points="77 0 70 48 77 96 70 154 77 216 70 296 77 382"></polyline>
                    <polyline id="Line" points="87 0 80 48 87 96 80 154 87 216 80 296 87 382"></polyline>
                    <polyline id="Line" points="97 0 90 48 97 96 90 154 97 216 90 296 97 382"></polyline>
                    <polyline id="Line" points="107 0 100 48 107 96 100 154 107 216 100 296 107 382"></polyline>
                    <polyline id="Line" points="117 0 110 48 117 96 110 154 117 216 110 296 117 382"></polyline>
                    <polyline id="Line" points="127 0 120 48 127 96 120 154 127 216 120 296 127 382"></polyline>
                    <polyline id="Line" points="137 0 130 48 137 96 130 154 137 216 130 296 137 382"></polyline>
                    <polyline id="Line" points="147 0 140 48 147 96 140 154 147 216 140 296 147 382"></polyline>
                    <polyline id="Line" points="157 0 150 48 157 96 150 154 157 216 150 296 157 382"></polyline>
                    <polyline id="Line" points="167 0 160 48 167 96 160 154 167 216 160 296 167 382"></polyline>
                    <polyline id="Line" points="177 0 170 48 177 96 170 154 177 216 170 296 177 382"></polyline>
                    <polyline id="Line" points="187 0 180 48 187 96 180 154 187 216 180 296 187 382"></polyline>
                    <polyline id="Line" points="197 0 190 48 197 96 190 154 197 216 190 296 197 382"></polyline>
                    <polyline id="Line" points="207 0 200 48 207 96 200 154 207 216 200 296 207 382"></polyline>
                    <polyline id="Line" points="217 0 210 48 217 96 210 154 217 216 210 296 217 382"></polyline>
                    <polyline id="Line" points="227 0 220 48 227 96 220 154 227 216 220 296 227 382"></polyline>
                    <polyline id="Line" points="237 0 230 48 237 96 230 154 237 216 230 296 237 382"></polyline>
                    <polyline id="Line" points="247 0 240 48 247 96 240 154 247 216 240 296 247 382"></polyline>
                    <polyline id="Line" points="257 0 250 48 257 96 250 154 257 216 250 296 257 382"></polyline>
                </g>
                <g id="Line-Group-2" transform="translate(860.000000, 0.000000)">
                    <polyline id="Line" points="7 0 0 48 7 96 0 154 7 216 0 296 7 382"></polyline>
                    <polyline id="Line" points="17 0 10 48 17 96 10 154 17 216 10 296 17 382"></polyline>
                    <polyline id="Line" points="27 0 20 48 27 96 20 154 27 216 20 296 27 382"></polyline>
                    <polyline id="Line" points="37 0 30 48 37 96 30 154 37 216 30 296 37 382"></polyline>
                    <polyline id="Line" points="47 0 40 48 47 96 40 154 47 216 40 296 47 382"></polyline>
                    <polyline id="Line" points="57 0 50 48 57 96 50 154 57 216 50 296 57 382"></polyline>
                    <polyline id="Line" points="67 0 60 48 67 96 60 154 67 216 60 296 67 382"></polyline>
                    <polyline id="Line" points="77 0 70 48 77 96 70 154 77 216 70 296 77 382"></polyline>
                    <polyline id="Line" points="87 0 80 48 87 96 80 154 87 216 80 296 87 382"></polyline>
                    <polyline id="Line" points="97 0 90 48 97 96 90 154 97 216 90 296 97 382"></polyline>
                    <polyline id="Line" points="107 0 100 48 107 96 100 154 107 216 100 296 107 382"></polyline>
                    <polyline id="Line" points="117 0 110 48 117 96 110 154 117 216 110 296 117 382"></polyline>
                    <polyline id="Line" points="127 0 120 48 127 96 120 154 127 216 120 296 127 382"></polyline>
                    <polyline id="Line" points="137 0 130 48 137 96 130 154 137 216 130 296 137 382"></polyline>
                    <polyline id="Line" points="147 0 140 48 147 96 140 154 147 216 140 296 147 382"></polyline>
                    <polyline id="Line" points="157 0 150 48 157 96 150 154 157 216 150 296 157 382"></polyline>
                    <polyline id="Line" points="167 0 160 48 167 96 160 154 167 216 160 296 167 382"></polyline>
                    <polyline id="Line" points="177 0 170 48 177 96 170 154 177 216 170 296 177 382"></polyline>
                    <polyline id="Line" points="187 0 180 48 187 96 180 154 187 216 180 296 187 382"></polyline>
                    <polyline id="Line" points="197 0 190 48 197 96 190 154 197 216 190 296 197 382"></polyline>
                    <polyline id="Line" points="207 0 200 48 207 96 200 154 207 216 200 296 207 382"></polyline>
                    <polyline id="Line" points="217 0 210 48 217 96 210 154 217 216 210 296 217 382"></polyline>
                    <polyline id="Line" points="227 0 220 48 227 96 220 154 227 216 220 296 227 382"></polyline>
                    <polyline id="Line" points="237 0 230 48 237 96 230 154 237 216 230 296 237 382"></polyline>
                    <polyline id="Line" points="247 0 240 48 247 96 240 154 247 216 240 296 247 382"></polyline>
                </g>
            </g>
        </g>
    </g>
</svg>